<svg id="OBJECTS" xmlns="http://www.w3.org/2000/svg" viewBox="0 0 120 130"><defs><style>.cls-1{fill:#ff7c84;}.cls-1,.cls-2,.cls-3,.cls-4,.cls-5,.cls-6,.cls-7,.cls-8,.cls-9{fill-rule:evenodd;}.cls-2{fill:#534259;}.cls-3{fill:#423447;}.cls-4{fill:#e4ae91;}.cls-5{fill:#b77a65;}.cls-6{fill:#381c0a;}.cls-7{fill:#734434;}.cls-8{fill:#20201e;}.cls-9{fill:#5c4a60;}.cls-10{fill:#dd9989;}</style></defs><title>Artboard 5</title><path class="cls-1" d="M60,121.7A55.54,55.54,0,1,0,4.46,66.16,55.64,55.64,0,0,0,60,121.7Z"/><path class="cls-2" d="M66.52,90.51c-18.89,0-34.33,13.64-35.44,30.85H102C100.85,104.15,85.41,90.51,66.52,90.51Z"/><path class="cls-2" d="M53.5,112.9c5.88-6.18,10.47-7.88,15.76-5.58A33.94,33.94,0,0,1,78.14,113s.5-12.37-2.39-14.56-10.47-2.59-11.47-2.19S51.81,101.13,53.5,112.9Z"/><path class="cls-3" d="M65.86,102.21c-5.19.4-11.57,8.51-12.1,10.77s-9.84-20.21,1.73-23.67,10.37,1.6,10.37,1.6Z"/><path class="cls-3" d="M65.93,102.21c5.19.4,11.57,8.51,12.1,10.77s9.84-20.21-1.73-23.67-10.37,1.6-10.37,1.6Z"/><path class="cls-4" d="M28.8,70c-1.38-2.18-3.15-3.79-4.78-4.17-4.19-1-5.79,2.79-4.75,7,1.51,6.17,8,12.24,11.85,7.35C33.35,77.3,28.8,70,28.8,70Z"/><path class="cls-4" d="M89.87,68a10,10,0,0,1,5.43-4.12c4.19-1,5.79,2.79,4.75,7-1.51,6.17-8,12.24-11.85,7.35C86,75.38,89.87,68,89.87,68Z"/><path class="cls-4" d="M27.37,55.27c1.48,22.38,2.55,35,8.58,42.81,5.78,7.5,21.63,11.58,30.52,9.69,5.27-1.12,22.34-7.18,24.42-20.43S91,40.91,91,40.91,74.45,28.14,65.19,27.19,30.4,36.12,30.4,36.12,19.87,39.63,27.37,55.27Z"/><path class="cls-5" d="M30.28,67.37c.8-10.13,2-11,6-13.17A42.24,42.24,0,0,1,43.92,51l-4.23,5.11S72.09,50,77.67,50s4.15,4.47,7,9.73,6.38,7.18,6.38,7.18.16-22.66-.32-24.9S81,36.41,64.11,36.41s-34.79,2.39-35.27,5.91S26.77,62.75,30.28,67.37Z"/><path class="cls-4" d="M83.73,83.73c6.51,0,10.74.42,13.67,1.78,4.91,2.28,7.07,16.83,1.43,21.23a5.82,5.82,0,0,1-6.33.94c-6.65-3.19-4-7.87-1.57-6.28,1.24.83,2.56,1.47.62-.17-2.32-2-5.49-4.72-5.57-4.86C83.73,92.37,83.73,83.73,83.73,83.73Z"/><path class="cls-5" d="M85.4,83.74c1.74,0,3.31.08,4.72.19,0,9.26.12,14,4.63,16.44s-3.89,3.67,4,6.42a5.8,5.8,0,0,1-6.26.88c-6.65-3.19-4-7.87-1.57-6.28,1.24.83,2.56,1.47.62-.17-2.32-2-5.49-4.72-5.57-4.86-2.06-3.64-2.24-11.15-2.26-12.44C84.24,83.85,84.79,83.78,85.4,83.74Z"/><path class="cls-6" d="M22.82,40.75c-4.38,5.28-3.65,9.34-2.23,15.72l1.28-3c1.25,3.7,2.26,6.57,3.4,9.3.88,2.11,3.66,10.33,4.14,8.63C32.34,61,30.15,59,31.52,53.52c.32-1.28,8.22-6.86,8.22-6.86l-5.35,5.82,13.72-4.71L41.49,55S50.67,49.61,65,47.53s19.31-1,19.31-1c-1.14,3.56,5.38,20.93,6.16,21.21s12.12-24.9,2.94-28.43c-.36-.14,6.25,1.66,6.14,1.36-2-5.63-4.78-6.44-8.46-6.46a29.64,29.64,0,0,0-1.44-6.38l-1.2-3.51a9.49,9.49,0,0,1-.08,3.83,6.09,6.09,0,0,1-1.2,2.79S84,19.49,74.45,16.45c-16.89-5.35-34.93,11.08-50.91,9.06-1-.12-1.64-.42-1.65,0,0,1.22,1.43,3.65,3,5.23a8.4,8.4,0,0,0,2.49,1.63c-1.92,2.28-10.12,2.47-11.68,2.24C15.72,34.65,18.51,39.67,22.82,40.75Z"/><path class="cls-7" d="M87.2,30.85a26.21,26.21,0,0,0-2.13-4.92c-4.44.76-19.53,2.61-30.64-4.63-1.32-.86-2.51-1.65-3.58-2.37C45.16,21,39.5,23.36,34,24.68c14.4,10.87,33.84,11,43.28,9.14C84.7,32.39,86.61,31.5,87.2,30.85Z"/><path class="cls-6" d="M47.31,59.76c-6.58-.94-10.21.74-10.21.74L49,64.58S50.41,59.88,47.31,59.76Z"/><path class="cls-8" d="M47.3,59.78c-6.17-.88-9.73.54-10.15.72L49,64.55c.09-.32,1.25-4.66-1.72-4.77Zm-10.21.71s3.63-1.69,10.22-.74c3.12.12,1.75,4.83,1.74,4.84v0l-12-4.08Z"/><path class="cls-6" d="M67.07,57.58C73,55.8,76.53,57,76.53,57L66.18,62.61S64.25,58.1,67.07,57.58Z"/><path class="cls-8" d="M67.07,57.57C73,55.78,76.53,57,76.54,57h0L66.17,62.64v0s-1.94-4.53.91-5.05ZM76.48,57c-.41-.13-3.88-1.1-9.41.57h0c-2.7.49-1,4.67-.89,5Z"/><path class="cls-5" d="M27.45,71.46a5.48,5.48,0,0,0-2.9-2.53C22,68.34,21,70.62,21.66,73.2c.92,3.75,4.88,7.43,7.19,4.46C30.21,75.92,27.45,71.46,27.45,71.46Z"/><path class="cls-5" d="M92.41,69.67a5.47,5.47,0,0,1,2.9-2.53c2.54-.59,3.52,1.69,2.89,4.27-.92,3.75-4.88,7.43-7.19,4.46C89.65,74.12,92.41,69.67,92.41,69.67Z"/><path class="cls-9" d="M24.57,80.81c-6.76,8.85-7,25.88.05,31.4,8.78,6.83,65,2.42,64.93.65l0-3.2-.41-26.83L31.4,88.69l-1.79-7.2C28,82.35,26.24,82,24.57,80.81Z"/><polygon class="cls-6" points="41.68 69.97 50.13 73.45 44.69 78.37 43.44 76.98 46.66 74.06 40.97 71.71 41.68 69.97"/><polygon class="cls-6" points="74.94 67.88 69.55 71.13 73.6 73.27 72.72 74.94 65.73 71.23 73.98 66.27 74.94 67.88"/><path class="cls-5" d="M55.28,81.28a20.21,20.21,0,0,0,8.1-.79c-1.32,1.65-2,2.58-3.3,2.86S57,83.11,55.28,81.28Z"/><polygon class="cls-6" points="10.78 69.08 20.13 77.31 24.14 73.7 33.41 82.54 32.12 83.9 24.11 76.26 20.14 79.83 9.54 70.5 10.78 69.08"/><polygon class="cls-6" points="8.42 93.12 20.59 93.76 21.63 87.32 34.24 86.61 34.34 88.49 23.24 89.11 22.18 95.73 8.32 95 8.42 93.12"/><polygon class="cls-6" points="105.43 65.18 94.83 74.51 90.86 70.94 82.85 78.58 81.56 77.22 90.83 68.38 94.84 71.99 104.19 63.77 105.43 65.18"/><polygon class="cls-6" points="106.65 89.68 92.79 90.41 91.73 83.79 80.63 83.17 80.73 81.29 93.34 82 94.38 88.44 106.55 87.8 106.65 89.68"/><ellipse class="cls-10" cx="43.8" cy="83.89" rx="2.91" ry="5.93" transform="translate(-42.24 123.31) rotate(-87.04)"/><ellipse class="cls-10" cx="74.44" cy="80.86" rx="5.93" ry="2.91" transform="translate(-9.53 9.94) rotate(-7.18)"/></svg>