<svg id="OBJECTS" xmlns="http://www.w3.org/2000/svg" viewBox="0 0 120 130"><defs><style>.cls-1{fill:#ff7c84;}.cls-1,.cls-2,.cls-4,.cls-5,.cls-6,.cls-7,.cls-9{fill-rule:evenodd;}.cls-2{fill:#b77a65;}.cls-3{fill:#6898a3;}.cls-4{fill:#76a5af;}.cls-10,.cls-5{fill:#97bbc3;}.cls-6{fill:#999a9a;}.cls-7{fill:#c4c4c4;}.cls-8{fill:#afb0b0;}.cls-9{fill:#d6947c;}</style></defs><title>Artboard 2</title><path class="cls-1" d="M59.75,121.79A55.54,55.54,0,1,0,4.22,66.25,55.64,55.64,0,0,0,59.75,121.79Z"/><path class="cls-2" d="M91,30.48,70.87,50.22,60.22,47.06,48.8,50c-2.38,5.62,3.38,5.57,8.27,5.1,1.21-.11,2.8.8,2.2,1.38L43.32,71.74c-2.44,2.34-2.15,3.56-1.41,4.43a2.49,2.49,0,0,0,2.76,1.06,17.29,17.29,0,0,0,5.26-3s-5.36,4.23-3,6.67,5.9-1.42,7.36-2.5c.92-.68-1.76,1.68-2.07,3.72a2.47,2.47,0,0,0,1.51,2.2c2.8,1.4,7-3.53,7-3.53s-1.84,2.18-1.4,3.54a2.52,2.52,0,0,0,2.74,1.3c1.17-.1,2.52-.69,4.25-2.35l39.47-37.66Z"/><path class="cls-2" d="M66.94,74a.47.47,0,0,1,.67.67L60.25,82a.47.47,0,0,1-.67-.67Z"/><path class="cls-2" d="M62.5,69.19a.47.47,0,1,1,.67.67l-10,10a.47.47,0,0,1-.67-.67Z"/><path class="cls-2" d="M58.51,64.44a.47.47,0,0,1,.67.66L47.65,76.79a.47.47,0,1,1-.67-.66Z"/><rect class="cls-3" x="49.9" y="36.99" width="8.46" height="36.23"/><path class="cls-4" d="M58.36,37H53.73V54.78a1.6,1.6,0,0,0,1.6,1.6h3Z"/><path class="cls-5" d="M69.53,46.94a8.65,8.65,0,0,0-7.91,5.15,8.25,8.25,0,0,0-8.76,4.7A9.18,9.18,0,0,0,38,67a7.32,7.32,0,0,0-1,14A11.84,11.84,0,0,0,54.08,96.93a11.17,11.17,0,0,0,21.52.21A11.84,11.84,0,0,0,88.28,79.07,15.84,15.84,0,0,0,77.12,59.73a8.65,8.65,0,0,0-7.59-12.78Z"/><path class="cls-6" d="M16.55,29.52a6.6,6.6,0,0,1,0-13.19H44.47a6.6,6.6,0,0,1,6,3.86L60,36.77l-11.94,5A5,5,0,0,1,47,40.43l-6.3-10.9Z"/><path class="cls-7" d="M13.14,17.27a6.57,6.57,0,0,1,3.4-.95H44.47a6.6,6.6,0,0,1,6,3.86L60,36.77l-7.15,3-9-15.82H19.74a6.6,6.6,0,0,1-6.6-6.6S13.14,17.3,13.14,17.27Z"/><rect class="cls-8" x="6.17" y="9.09" width="13.57" height="28.19" rx="1.6" ry="1.6"/><path class="cls-7" d="M7.77,9.09h7.89a1.38,1.38,0,0,1,0,.14v19a1.21,1.21,0,0,1-1.21,1.21H6.59a1.23,1.23,0,0,1-.41-.07V10.69A1.6,1.6,0,0,1,7.77,9.09Z"/><path class="cls-9" d="M98.53,38.14,78.37,57.88,67.73,54.72l-11.43,3c-2.38,5.62,3.38,5.57,8.27,5.11,1.21-.12,2.8.8,2.2,1.38L50.82,79.4c-2.45,2.34-2.15,3.56-1.41,4.43a2.49,2.49,0,0,0,2.76,1.06,17.26,17.26,0,0,0,5.26-3s-5.36,4.23-3,6.67,5.9-1.42,7.36-2.5c.92-.68-1.76,1.68-2.07,3.72A2.48,2.48,0,0,0,61.27,92c2.8,1.4,7-3.53,7-3.53s-1.84,2.18-1.4,3.54a2.52,2.52,0,0,0,2.74,1.3c1.17-.1,2.52-.69,4.25-2.35l39.46-37.66Z"/><path class="cls-2" d="M74.44,81.63a.47.47,0,0,1,.67.67l-7.36,7.36a.47.47,0,1,1-.67-.67Z"/><path class="cls-2" d="M70,76.85a.47.47,0,0,1,.67.67l-10,10a.47.47,0,0,1-.67-.67Z"/><path class="cls-2" d="M66,72.1a.47.47,0,0,1,.67.66L55.15,84.45a.47.47,0,0,1-.67-.66Z"/><circle class="cls-10" cx="31.83" cy="61.41" r="2.63"/><circle class="cls-10" cx="93.03" cy="78.72" r="2.71"/><circle class="cls-10" cx="29.83" cy="67.71" r="1.28"/><path class="cls-4" d="M77.16,88.07A10.75,10.75,0,0,1,57,89.31a2.51,2.51,0,0,1-2.13-.41A11.39,11.39,0,0,1,40,72.62,7.06,7.06,0,0,1,35.63,68,7.32,7.32,0,0,0,37,81.08,11.84,11.84,0,0,0,54.08,96.93a11.17,11.17,0,0,0,21.52.21A11.85,11.85,0,0,0,89.86,82.52a11.41,11.41,0,0,1-12.7,5.55Z"/></svg>