<svg id="OBJECTS" xmlns="http://www.w3.org/2000/svg" viewBox="0 0 120 130"><defs><style>.cls-1{fill:#ff7c84;}.cls-1,.cls-11,.cls-12,.cls-13,.cls-14,.cls-15,.cls-17,.cls-18,.cls-2,.cls-3,.cls-4,.cls-5,.cls-6,.cls-7,.cls-8{fill-rule:evenodd;}.cls-2,.cls-9{fill:#381c0a;}.cls-3{fill:#20201e;}.cls-4{fill:#5c4a60;}.cls-5{fill:#423447;}.cls-6{fill:#e4ae91;}.cls-7{fill:#b77a65;}.cls-8{fill:#734434;}.cls-10{fill:#fff;}.cls-11{fill:#dc3545;}.cls-12{fill:#ba1a32;}.cls-13{fill:#d6947c;}.cls-14{fill:#b94b22;}.cls-15{fill:#d12841;}.cls-16{fill:#dd9989;}.cls-17{fill:#b87c68;}.cls-18{fill:#673d2e;}</style></defs><title>Artboard 3</title><path class="cls-1" d="M60,112.5A43.29,43.29,0,1,0,16.71,69.2,43.38,43.38,0,0,0,60,112.5Z"/><path class="cls-2" d="M106.93,29.91c19.88-1.08,13.25,37.1-3.23,45.66-11.76,6.1-17.78-31.27-14.25-48.74C90.05,23.79,101.16,29.72,106.93,29.91Z"/><path class="cls-3" d="M106.93,29.9a10.36,10.36,0,0,1,8.36,2.93c2.1,2.14,3.3,5.3,3.73,9a35.2,35.2,0,0,1-.89,12c-2.15,9.09-7.39,18.15-14.44,21.81a5.48,5.48,0,0,1-2.51.67c-2.36,0-4.44-1.8-6.2-4.79a43.23,43.23,0,0,1-4.27-11.84c-2.45-10.7-3-24.18-1.3-32.81.19-1,1.42-1,3.19-.68A54.63,54.63,0,0,1,98,27.72c3.12,1,6.47,2.1,8.89,2.18Zm8.34,3a10.34,10.34,0,0,0-8.34-2.92h0c-2.42-.08-5.77-1.17-8.9-2.18a54.64,54.64,0,0,0-5.42-1.57c-1.75-.35-3-.28-3.15.66-1.74,8.63-1.15,22.1,1.3,32.79A43.21,43.21,0,0,0,95,71.45c1.75,3,3.82,4.78,6.17,4.77a5.45,5.45,0,0,0,2.5-.66c7-3.65,12.27-12.7,14.42-21.79a35.18,35.18,0,0,0,.89-12C118.56,38.14,117.36,35,115.26,32.85Z"/><path class="cls-4" d="M85.83,88.44A25.81,25.81,0,0,0,59.91,112.5h51.83a25.59,25.59,0,0,0-13.7-21A26.13,26.13,0,0,0,85.83,88.44Z"/><path class="cls-5" d="M80.08,97.44c-2.36.31-6.71,6.63-7.38,8.4S72.24,90.08,78,87.39s4.25,1.24,4.25,1.24Z"/><path class="cls-5" d="M82.23,98.06c4.91-.81,8.4,6.76,8.81,8.52s11.16-17.38,2.76-20.07-6.34,2.24-6.34,2.24Z"/><path class="cls-6" d="M76.88,81.66c2.84,7.93,1.73,13.78,4,15.8A4,4,0,0,0,84,98.2c6.37-.49,12.69-18,12.69-18Z"/><path class="cls-7" d="M76.88,81.66a49,49,0,0,1,2.3,10.76,26.07,26.07,0,0,0,12-.71,70.56,70.56,0,0,0,5.5-11.48Z"/><path class="cls-6" d="M59.47,48.41c1.16,17.45.75,25.16,5.44,31.26,8.55,11.09,17.56,10.44,26.19,6.06,2.18-1.11,5.73-.12,7.61-2,4.7-4.63,8.26-11.43,9.73-19.63,2-11.41.66-26.91.66-26.91S96.17,27.26,89,26.51s-27.12,7-27.12,7S53.62,36.22,59.47,48.41Z"/><path class="cls-7" d="M59.47,48.41l0,.38A16.6,16.6,0,0,0,61.87,51c2.72-6.92,5.75-8.94,8.09-10.11l2.33-1.17-2.64,4a122.33,122.33,0,0,1,19.83-3.81c11.66-1.32,12.13-2,12,.47s2.88,7.08,5.44,11,.4-5.43.4-5.43,0-9.58-.25-10-.07-.17-.09-.28c-1.23-.87-2.9-2-4.77-3.21a30.54,30.54,0,0,0-3.38-.08c-9.56.23-29,1.55-31.41,2.49s-7,.7-7.93,3.73A26.71,26.71,0,0,0,58,44.7,25,25,0,0,0,59.47,48.41Z"/><path class="cls-2" d="M55.92,37.09c-3.42,4.12-2.85,7.28-1.74,12.25l1-2.36a74.91,74.91,0,0,0,5,12.24s2.4-8.63,2.4-11.93-.25-4.1,0-5.1S69,36.84,69,36.84l-4.17,4.54,10.7-3.67-5.16,5.6A55.35,55.35,0,0,1,88.7,37.52c11.2-1.62,10.08.69,10.08.69-1.35,4.22,2.27,11,4.55,18,.26.79,1.48,3.79,2.2,1.87.57-1.53,3.07-3.71,6.07-4.74,6.81-2.34,3.5-16.5-.88-18.19-.28-.11,4.87,1.29,4.79,1.06-1.53-4.39-3.73-5-6.59-5a23.15,23.15,0,0,0-1.12-5l-.93-2.74a7.38,7.38,0,0,1-.06,3,4.76,4.76,0,0,1-.93,2.18s-2.24-8.15-9.7-10.51C83,14,68.94,26.78,56.48,25.21c-.74-.09-1.28-.33-1.28,0,0,.95,1.12,2.85,2.35,4.08a6.54,6.54,0,0,0,1.94,1.27c-1.5,1.78-7.89,1.92-9.1,1.75C50.38,32.33,52.56,36.25,55.92,37.09Z"/><path class="cls-8" d="M106.11,29.37A18.45,18.45,0,0,0,105.2,27c-.21-.46-10.32,3.51-24.63-5.09-5-3-2-1.28-2.79-1.84-4.44,1.58-8.85,3.45-13.15,4.48C75.85,33,91,33.09,98.37,31.68,104.16,30.57,105.65,29.87,106.11,29.37Z"/><ellipse class="cls-9" cx="67.63" cy="57.26" rx="2.6" ry="3.96"/><ellipse class="cls-9" cx="89.86" cy="56.14" rx="3.08" ry="3.96"/><path class="cls-2" d="M68.76,46.56a12.29,12.29,0,0,0-6.13,3.35L71,49.59S70.7,45.79,68.76,46.56Z"/><path class="cls-2" d="M87.36,45.24c4.72.87,6.76,3,6.76,3l-9.17.18S85.22,44.59,87.36,45.24Z"/><ellipse class="cls-10" cx="66.41" cy="55.41" rx="0.76" ry="0.89"/><circle class="cls-10" cx="88.41" cy="54.16" r="0.89"/><path class="cls-7" d="M77.28,82.88a15.75,15.75,0,0,0,6.31-.73c-1,1.3-1.56,2-2.53,2.28S78.66,84.28,77.28,82.88Z"/><path class="cls-8" d="M103.45,29.25a12.19,12.19,0,0,1,2.62.17c.64,6.43,6.58,8.58,12.13,8.58a25.49,25.49,0,0,1,.92,9.14C110.12,45.52,103.86,35.85,103.45,29.25Z"/><path class="cls-11" d="M100.09,63.13A.73.73,0,1,1,99.17,62c.54-.44,1.27-1.08,2.07-1.8,2.18-1.93,4.91-4.35,6.21-4.71a5.19,5.19,0,0,1,3-.12c1.37.47,1.91,1.7,1.85,3.43A18,18,0,0,1,111,64.19c-2.7,7-9.11,16.14-10.72,18a.73.73,0,0,1-1.1-1c1.57-1.79,7.82-10.66,10.46-17.54a16.66,16.66,0,0,0,1.26-4.92c0-1-.21-1.76-.86-2a3.85,3.85,0,0,0-2.18.15c-1,.27-3.56,2.56-5.63,4.4C101.38,62,100.64,62.69,100.09,63.13Z"/><path class="cls-6" d="M106.58,57a7.8,7.8,0,0,1,4.23-3.21c3.27-.76,4.52,2.17,3.71,5.48-1.18,4.81-6.27,9.55-9.24,5.73C103.54,62.72,106.58,57,106.58,57Z"/><path class="cls-7" d="M108.56,58.26a4.26,4.26,0,0,1,2.26-2c2-.46,2.74,1.32,2.25,3.33-.72,2.92-3.81,5.8-5.61,3.48C106.4,61.73,108.56,58.26,108.56,58.26Z"/><path class="cls-11" d="M64.74,65.82a.73.73,0,0,1-1,1.09A17.49,17.49,0,0,1,60.45,63,8.44,8.44,0,0,1,59,59a.73.73,0,0,1,1.47,0,7,7,0,0,0,1.19,3.23A16,16,0,0,0,64.74,65.82Z"/><path class="cls-11" d="M101,81c-.29-3.08-1-18.1-.62-19.08.22-.55-4,.86-12.44.7-3.68-.07-7.29-.72-10-.54-5.82.39-9.52,1.88-16.19,2,0,9.55.55,19.39,8.69,23.41C80.64,92.56,94.51,91,101,81Z"/><path class="cls-12" d="M64.48,70.9a.73.73,0,0,1,.41-1.41c3.84,1.13,9.19,1.39,14.34,1.14,6.3-.31,12.24-1.37,14.69-2.54a.73.73,0,1,1,.63,1.33c-2.6,1.24-8.77,2.36-15.25,2.67C74,72.35,68.49,72.08,64.48,70.9Z"/><path class="cls-12" d="M64.48,76a.73.73,0,1,1,.41-1.41c3.84,1.13,9.19,1.39,14.34,1.14,6.3-.31,12.24-1.37,14.69-2.54a.73.73,0,1,1,.63,1.33c-2.6,1.24-8.77,2.36-15.25,2.67C74,77.43,68.49,77.16,64.48,76Z"/><path class="cls-12" d="M65.33,81.57a.73.73,0,0,1,.44-1.4c3.61,1.13,8.64,1.38,13.48,1.13,5.93-.31,11.51-1.37,13.81-2.53a.73.73,0,1,1,.66,1.31c-2.46,1.24-8.28,2.37-14.4,2.68C74.33,83,69.11,82.75,65.33,81.57Z"/><path class="cls-13" d="M70.57,93.11c.12-2.37.14-5.16.21-6.87s-2.09-.48-2.56.39a10.63,10.63,0,0,0-1,3l-.16.21c.12-4.28-.08-7.33.11-12.06.07-1.69.3-3.92-.81-4.24-3.06-.89-3,4.79-3,4.79s.08-4.7-2-4.55-1.83,3.29-1.9,4.59.2-4.13-1.87-3-1.78,5.11-1.78,5.11c-.59-2.21-2.56-1.85-2.67,1.09-.16,4.14,0,13.08.1,14,.39,4.45,1.89,6.59,4.35,7.9l6.19,9H80.35L69.8,100.7l-1-1.13A14.32,14.32,0,0,0,70.57,93.11Z"/><path class="cls-7" d="M53.23,92.67c0,1.53.07,2.66.09,3,.39,4.45,1.89,6.59,4.35,7.9l6.19,9h4.77l-8.48-10.05c-.86-1-1.87-1-2.64-1.55C55.63,99.58,54.24,98.1,53.23,92.67Z"/><path class="cls-7" d="M56.41,86.73a.37.37,0,1,1-.73,0V80.11a.37.37,0,1,1,.73,0Z"/><path class="cls-7" d="M59.77,85.74a.37.37,0,0,1-.74,0v-9a.37.37,0,0,1,.74,0Z"/><path class="cls-7" d="M63.56,84.43a.37.37,0,1,1-.73,0V75.91a.37.37,0,1,1,.73,0Z"/><path class="cls-7" d="M67.29,90.31a.37.37,0,0,1-.73,0V87.57a.37.37,0,0,1,.73,0Z"/><path class="cls-14" d="M49.08,13.32V10.38H47.61v2.94Zm-.73,99.82h.73v-1.37H47.61v1.37Zm.73-2.84v-2.94H47.61v2.94Zm0-4.41V103H47.61v2.94Zm0-4.41V98.55H47.61v2.94Zm0-4.41V94.14H47.61v2.94Zm0-4.41V89.73H47.61v2.94Zm0-4.41V85.32H47.61v2.94Zm0-4.41V80.91H47.61v2.94Zm0-4.41V76.51H47.61v2.94Zm0-4.41V72.1H47.61V75Zm0-4.41V67.69H47.61v2.94Zm0-4.41V63.28H47.61v2.94Zm0-4.41V58.87H47.61v2.94Zm0-4.41V54.46H47.61V57.4Zm0-4.41V50.06H47.61V53Zm0-4.41V45.65H47.61v2.94Zm0-4.41V41.24H47.61v2.94Zm0-4.41V36.83H47.61v2.94Zm0-4.41V32.42H47.61v2.94Zm0-4.41V28H47.61V31Zm0-4.41V23.61H47.61v2.94Zm0-4.41V19.2H47.61v2.94Zm0-4.41V14.79H47.61v2.94Z"/><path class="cls-11" d="M21.57,75.17c-7.93,0-14.41,5.72-14.87,12.95H36.44C36,80.89,29.49,75.17,21.57,75.17Z"/><path class="cls-15" d="M14.16,88.11H36.44a13.87,13.87,0,0,0-8.87-11.78C27.53,80.37,26.09,86.15,14.16,88.11Z"/><path class="cls-15" d="M16.11,84.56c2.47-2.6,4.39-3.31,6.61-2.34a14.24,14.24,0,0,1,3.73,2.39s.21-5.19-1-6.11S21,77.4,20.63,77.57,15.39,79.62,16.11,84.56Z"/><path class="cls-12" d="M21.29,80.08c-2.18.17-4.86,3.57-5.08,4.52s-4.13-8.48.73-9.93,4.35.67,4.35.67Z"/><path class="cls-12" d="M21.32,80.08c2.18.17,4.86,3.57,5.08,4.52s4.13-8.48-.73-9.93-4.35.67-4.35.67Z"/><path class="cls-6" d="M15.63,71.51C17.57,77,18,80,21.56,80s4.72-9.21,4.72-9.21Z"/><path class="cls-7" d="M15.63,71.51c.86,2.41,1.42,4.34,2.08,5.74a13.2,13.2,0,0,0,5,.11c.52-.11,1.23-.26,2-.5a26.41,26.41,0,0,0,1.58-6.13Z"/><path class="cls-6" d="M6.86,59.78a3.78,3.78,0,0,0-2-1.75c-1.76-.41-2.43,1.17-2,3,.63,2.59,3.37,5.14,5,3.08C8.77,62.86,6.86,59.78,6.86,59.78Z"/><path class="cls-6" d="M32.89,59a4.2,4.2,0,0,1,2.28-1.73c1.76-.41,2.43,1.17,2,3-.63,2.59-3.38,5.14-5,3.08C31.25,62.05,32.89,59,32.89,59Z"/><path class="cls-6" d="M6.25,53.62c.62,9.39,1.07,14.68,3.6,18s9.08,4.86,12.81,4.07c2.21-.47,9.38-3,10.25-8.57S33,47.59,33,47.59s-7-5.36-10.85-5.76-14.6,3.75-14.6,3.75S3.11,47.05,6.25,53.62Z"/><path class="cls-7" d="M7.55,56.51c.54-1.49,1-6.82,2.68-6.85,5.94-.1,6.17.64,17.88-1.24.63-.1,1,1.67,1.6,3.53.57,1.67,3.46,7.22,3.49,8,0,0-1.09-11.76-1.34-12.17a.42.42,0,0,1,0-.16c-.66-.51-1.56-1.18-2.57-1.87a15.39,15.39,0,0,0-1.82,0c-5.15.14-15.61.91-16.91,1.45s-3.77.41-4.27,2.17a16.59,16.59,0,0,0-.78,3.57C6,54.61,6.18,55.42,7.55,56.51Z"/><path class="cls-2" d="M6.64,61.29a45.54,45.54,0,0,0,1.29-6.94c0-1.58-.38-4.48,1.48-5.25,2.52-1,7.71.25,12.58-.51,6-.94,8.17-1.36,8.17-1.36-1.2,2.9,1.15,7.37,2.38,11.46.14.46.8,2.21,1.18,1.09,6.34-18.27-7.54-25.84-18.63-22.71C7.1,39.33-.37,46.93,6.64,61.29Z"/><path class="cls-8" d="M31.63,41.08c-3.53.42-10.2.57-15.35-3L15,37.11a16.71,16.71,0,0,0-7.76,4.65c7.68,4.86,17,4.81,21.79,3.82a25.73,25.73,0,0,0,4.8-1.31A13.17,13.17,0,0,0,31.63,41.08Z"/><path class="cls-2" d="M15,53.78a8.18,8.18,0,0,0-4.25.62l5.12,1.34S16.3,53.73,15,53.78Z"/><path class="cls-2" d="M24.15,52.81a7,7,0,0,1,4-.15l-4.39,2.25S23,53,24.15,52.81Z"/><path class="cls-7" d="M6.29,60.41a2.3,2.3,0,0,0-1.22-1.06c-1.07-.25-1.48.71-1.21,1.79.39,1.57,2,3.12,3,1.87C7.45,62.28,6.29,60.41,6.29,60.41Z"/><path class="cls-7" d="M34,59.66a2.29,2.29,0,0,1,1.22-1.06c1.07-.25,1.48.71,1.21,1.79-.39,1.57-2,3.12-3,1.87C32.79,61.53,34,59.66,34,59.66Z"/><path class="cls-2" d="M19.25,67c-1.3,1.49-2.1,4.42,1.85,4.2s2.83-3.3,1.22-4.65C21.07,65.56,20.18,66,19.25,67Z"/><path class="cls-7" d="M18.79,63.42A8.47,8.47,0,0,0,22.18,63c-.54.7-.84,1.1-1.36,1.23A2.24,2.24,0,0,1,18.79,63.42Z"/><ellipse class="cls-16" cx="27.28" cy="61.69" rx="2.49" ry="1.22" transform="translate(-12.49 7.21) rotate(-12.28)"/><ellipse class="cls-16" cx="12.88" cy="62.63" rx="1.22" ry="2.49" transform="translate(-50.33 72.26) rotate(-87.04)"/><path class="cls-13" d="M42,88.19C38.57,80.87,36.8,77.55,31.7,72.62a50.15,50.15,0,0,0-5.2-3.34C25.22,69,24.2,71,23.08,72.66A2.76,2.76,0,0,0,22,71.93c-1.17-.33-2.45.35-1.62,1.29s1.64,1.6,2.27,2.48a8,8,0,0,0,4.16,2.74c1.2.47,3.22.94,3.62,1.48,1.37,1.86,3,7.2,3.33,8.18Z"/><path class="cls-17" d="M26.68,77.11c4.09,1.5,4.43-2.39,2.85-4.62,0,0-5.67-1.37-7-.28,0,0-.35-.25-.31-.14s.39,1.88.47,2.08C23.4,75.94,24.35,76.25,26.68,77.11Z"/><path class="cls-13" d="M24,68.56A7.08,7.08,0,0,0,23,69.5c-1.09,1.2-.08,5.18.53,5.31a1,1,0,0,0,1.12-.7c-.28,2.33,2.47,2.05,2.4,1,0,0,.13,1.53,1.08,1.37s1-2.29,1.21-2.73,2.62-1,2.62-1-5-4.71-5.68-4.95S24,68.56,24,68.56Z"/><polygon class="cls-18" points="1.71 66.68 5.08 69.65 6.53 68.34 9.91 71.56 9.4 72.09 6.52 69.34 5.08 70.63 1.22 67.23 1.71 66.68"/><polygon class="cls-18" points="0.83 75.39 5.22 75.62 5.6 73.28 10.19 73.03 10.23 73.76 6.23 73.98 5.84 76.38 0.8 76.12 0.83 75.39"/><polygon class="cls-18" points="40.67 62.35 36.81 65.75 35.37 64.46 32.49 67.21 31.98 66.68 35.36 63.46 36.81 64.77 40.18 61.8 40.67 62.35"/><polygon class="cls-18" points="41.09 71.24 36.05 71.5 35.66 69.1 31.66 68.88 31.7 68.15 36.29 68.4 36.67 70.74 41.06 70.5 41.09 71.24"/><path class="cls-7" d="M24.84,74.76a.37.37,0,0,1-.73,0V72a.37.37,0,1,1,.73,0Z"/><path class="cls-7" d="M27.26,75.81a.37.37,0,0,1-.73,0V73.08a.37.37,0,0,1,.73,0Z"/><polygon class="cls-2" points="12.63 56.45 16.4 58 13.97 60.2 13.38 59.55 14.78 58.29 12.29 57.26 12.63 56.45"/><polygon class="cls-2" points="27.66 56.07 25.31 57.48 27.06 58.41 26.65 59.19 23.52 57.53 27.21 55.32 27.66 56.07"/></svg>