<svg id="OBJECTS" xmlns="http://www.w3.org/2000/svg" viewBox="0 0 120 130"><defs><style>.cls-1{fill:#ff7c84;}.cls-1,.cls-10,.cls-11,.cls-12,.cls-2,.cls-3,.cls-4,.cls-5,.cls-6,.cls-7,.cls-8{fill-rule:evenodd;}.cls-2{fill:#5c4a60;}.cls-3{fill:#534259;}.cls-4{fill:#423447;}.cls-5{fill:#e4ae91;}.cls-6{fill:#b77a65;}.cls-7,.cls-9{fill:#381c0a;}.cls-8{fill:#734434;}.cls-10{fill:#20201e;}.cls-11{fill:#dc3545;}.cls-12{fill:#ba1a32;}.cls-13{fill:#fff;}</style></defs><title>Mesa de trabajo 1</title><path class="cls-1" d="M60,127.15A55.54,55.54,0,1,0,4.42,71.62,55.64,55.64,0,0,0,60,127.15Z"/><path class="cls-2" d="M59.38,96.3c-18.89,0-34.33,13.64-35.44,30.85H94.82C93.7,109.94,78.26,96.3,59.38,96.3Z"/><path class="cls-3" d="M41.72,127.15h53.1c-.81-12.57-9.27-23.23-21.12-28.07C73.58,108.7,70.15,122.47,41.72,127.15Z"/><path class="cls-3" d="M46.36,118.69c5.88-6.18,10.47-7.88,15.76-5.58A33.92,33.92,0,0,1,71,118.79s.5-12.37-2.39-14.56S58.13,101.63,57.13,102,44.67,106.92,46.36,118.69Z"/><path class="cls-4" d="M58.71,108c-5.19.4-11.57,8.51-12.1,10.77S36.77,98.56,48.34,95.1s10.37,1.6,10.37,1.6Z"/><path class="cls-4" d="M58.78,108c5.19.4,11.57,8.51,12.1,10.77s9.84-20.21-1.73-23.67-10.37,1.6-10.37,1.6Z"/><path class="cls-5" d="M45.23,87.59c4.63,13,5.59,20.11,14.12,20.11S70.6,85.76,70.6,85.76Z"/><path class="cls-6" d="M45.23,87.59c2,5.75,3.38,10.35,5,13.69a31.47,31.47,0,0,0,11.8.26c1.24-.26,2.93-.63,4.86-1.18a63,63,0,0,0,3.76-14.6Z"/><path class="cls-5" d="M24.32,59.62c-1.38-2.18-3.15-3.79-4.78-4.17-4.19-1-5.79,2.79-4.75,7,1.51,6.17,8,12.24,11.85,7.35C28.87,67,24.32,59.62,24.32,59.62Z"/><path class="cls-5" d="M86.35,57.66a10,10,0,0,1,5.43-4.12c4.19-1,5.8,2.79,4.75,7-1.51,6.17-8,12.24-11.85,7.35C82.45,65.05,86.35,57.66,86.35,57.66Z"/><path class="cls-5" d="M22.89,44.94c1.48,22.38,2.55,35,8.58,42.81C37.25,95.26,53.1,99.33,62,97.45,67.25,96.33,84.33,90.27,86.4,77s.16-46.44.16-46.44S70,17.81,60.71,16.86s-34.79,8.94-34.79,8.94S15.39,29.3,22.89,44.94Z"/><path class="cls-6" d="M22.89,44.94l0,.49a21.41,21.41,0,0,0,3,2.84c3.49-8.88,7.38-11.47,10.37-13l3-1.5-3.39,5.09A156.83,156.83,0,0,1,61.37,34c15-1.7,15.56-2.59,15.36.6s3.69,9.08,7,14.06,3.39,7.08,3.39,7.08-2.59-25.93-3.19-26.83a.86.86,0,0,1-.11-.36c-1.58-1.12-3.72-2.6-6.12-4.12a38.89,38.89,0,0,0-4.34-.11c-12.27.3-37.2,2-40.29,3.19s-9,.9-10.17,4.79A34.21,34.21,0,0,0,21,40.19,32,32,0,0,0,22.89,44.94Z"/><path class="cls-7" d="M18.34,30.42C14,35.7,14.69,39.76,16.1,46.14l1.28-3a96,96,0,0,0,6.42,15.7s3.07-11.07,3.07-15.3-.32-5.27,0-6.54,8.22-6.86,8.22-6.86l-5.35,5.83,13.72-4.71L36.85,38.4S46,33.05,60.39,31s19.31-1,19.31-1C78,35.36,82.61,44.06,85.54,53.08c.33,1,1.9,4.86,2.82,2.4,2.55-6.79,8.49-23.5.59-26.54-.36-.14,6.25,1.66,6.14,1.36-2-5.63-4.78-6.44-8.46-6.46a29.61,29.61,0,0,0-1.44-6.38L84,13.94a9.48,9.48,0,0,1-.08,3.83,6.11,6.11,0,0,1-1.2,2.79S79.54,9.16,70,6.12C53.07.78,35,17.2,19.06,15.18c-1-.12-1.64-.42-1.65,0,0,1.22,1.43,3.65,3,5.23a8.38,8.38,0,0,0,2.49,1.63C21,24.35,12.79,24.54,11.24,24.32,11.24,24.32,14,29.34,18.34,30.42Z"/><path class="cls-8" d="M82.72,20.52a26.26,26.26,0,0,0-2.13-4.92C76.15,16.35,61.06,18.2,50,11c-1.32-.86-2.51-1.64-3.58-2.37C40.68,10.63,35,13,29.51,14.35c14.4,10.86,33.84,11,43.28,9.14C80.22,22.06,82.12,21.17,82.72,20.52Z"/><ellipse class="cls-9" cx="40.24" cy="54.39" rx="3.95" ry="5.08"/><ellipse class="cls-9" cx="70.81" cy="52.95" rx="3.95" ry="5.08"/><path class="cls-7" d="M42,40.65C35.47,42.1,32.67,45,32.67,45l12.61-.41S44.9,39.67,42,40.65Z"/><path class="cls-10" d="M42,40.67c-6.08,1.35-8.91,3.94-9.25,4.26l12.54-.4c0-.33-.47-4.8-3.29-3.86Zm-9.31,4.27s2.8-2.86,9.3-4.3c3-1,3.34,3.9,3.34,3.91v0L32.67,45Z"/><path class="cls-7" d="M67.6,39c6.06,1.12,8.67,3.83,8.67,3.83L64.51,43S64.86,38.14,67.6,39Z"/><path class="cls-10" d="M67.61,39c6.06,1.12,8.67,3.83,8.68,3.84l0,0-11.83.23v0s.35-4.92,3.12-4.08Zm8.62,3.83c-.31-.3-2.95-2.75-8.63-3.8h0c-2.62-.8-3,3.69-3.07,4Z"/><path class="cls-11" d="M22.81,58.14a.94.94,0,0,1,1.13-1.5l1,.77c4.94,3.68,7.79,5.81,9.52,11.93,1.5,5.31,22.4-.63,22.46-.65l.09,0,23.58-5.31c1.65-3.84,3.89-7.63,7.72-9.58a.94.94,0,0,1,.85,1.68c-3.48,1.77-5.57,5.55-7,9a.94.94,0,0,1-.67.58L57.45,70.5c-.23.07-22.77,6.46-24.77-.65-1.55-5.5-4.21-7.49-8.83-10.93Z"/><path class="cls-11" d="M31.13,87.3c5.67,7.76,22,12,30.85,10.14,4.76-1,16.25-3.58,21.78-12.15-.37-4-1.29-23.22-.79-24.48.13-.32-.38-.07-1.82.45-14.72,5.32-16.47.12-25.31.67-10.77.67-10.39,5-25.27,1.94C32.22,70.11,32.2,82.17,31.13,87.3Z"/><path class="cls-12" d="M37.62,73.16a.94.94,0,1,1,.53-1.8c4.93,1.45,11.79,1.78,18.39,1.46,8.08-.39,15.7-1.76,18.85-3.25a.94.94,0,0,1,.8,1.7c-3.34,1.58-11.25,3-19.56,3.43C49.85,75,42.76,74.67,37.62,73.16Z"/><path class="cls-12" d="M37.62,79.67a.94.94,0,1,1,.53-1.8c4.93,1.45,11.79,1.78,18.39,1.46,8.08-.39,15.7-1.76,18.85-3.25a.94.94,0,0,1,.8,1.7c-3.34,1.58-11.25,3-19.56,3.43C49.85,81.54,42.76,81.19,37.62,79.67Z"/><path class="cls-12" d="M38.7,86.84a.94.94,0,0,1,.56-1.8c4.63,1.44,11.08,1.78,17.29,1.45,7.6-.39,14.76-1.75,17.72-3.24a.94.94,0,1,1,.85,1.68C72,86.52,64.48,88,56.64,88.37,50.25,88.7,43.56,88.35,38.7,86.84Z"/><circle class="cls-13" cx="41.22" cy="52.01" r="1.15"/><circle class="cls-13" cx="72.14" cy="50.41" r="1.15"/><path class="cls-6" d="M23,61.13a5.47,5.47,0,0,0-2.9-2.53c-2.54-.59-3.52,1.69-2.89,4.27.92,3.75,4.88,7.43,7.19,4.46C25.73,65.59,23,61.13,23,61.13Z"/><path class="cls-6" d="M88.89,59.34a5.47,5.47,0,0,1,2.9-2.53c2.54-.59,3.52,1.69,2.89,4.27-.92,3.75-4.88,7.43-7.19,4.46C86.13,63.79,88.89,59.34,88.89,59.34Z"/></svg>