<svg id="OBJECTS" xmlns="http://www.w3.org/2000/svg" viewBox="0 0 120 130"><defs><style>.cls-1{fill:#ff7c84;}.cls-1,.cls-10,.cls-11,.cls-2,.cls-4,.cls-5,.cls-6,.cls-7,.cls-8,.cls-9{fill-rule:evenodd;}.cls-2,.cls-3{fill:#374762;}.cls-4{fill:#5c4a60;}.cls-5{fill:#4f4054;}.cls-6{fill:#b94b22;}.cls-7{fill:#924020;}.cls-8{fill:#89b1bb;}.cls-9{fill:#d6947c;}.cls-10{fill:#b77a65;}.cls-11,.cls-12{fill:#fff;}</style></defs><title>Artboard 4</title><path class="cls-1" d="M64.12,121.81A55.36,55.36,0,1,0,8.77,66.45,55.46,55.46,0,0,0,64.12,121.81Z"/><path class="cls-2" d="M65.67,41.85l1.92,4.28L72,41.45s.13,5.78,3.83,8.66,6.83,2.61,5.55,1.92S77,49,76.61,45.67,76,37.23,76,37.23,68.18,36.9,65.67,41.85Z"/><rect class="cls-3" x="80.52" y="30.09" width="3.08" height="6.88" transform="translate(-0.63 1.59) rotate(-1.11)"/><path class="cls-4" d="M47.79,58.94l-2.68,49.32c-.26,4.74,2.43,7,8.83,6.89,4.33-.09,13.57-.45,21.18-.61,4.05-.08,8.72.07,11.84-3.06s6.42-8.73,3.58-17.51C85.84,79.37,72.1,82.35,69.23,67.71s-1.48-13.9-5.46-15.26c-1.39-.47-13.07.19-14.25,1C47.9,54.66,47.92,56.6,47.79,58.94Z"/><path class="cls-5" d="M47.79,58.94,46.49,83l26.57-.59s12.41,6.52,10.82,19.25c-.75,6-4.5,10-9.44,12.91l.69,0c4.05-.08,8.72.07,11.84-3.06s6.42-8.73,3.58-17.51C85.84,79.37,72.1,82.35,69.23,67.71s-1.48-13.9-5.46-15.26c-1.39-.47-13.07.19-14.25,1C47.9,54.66,47.92,56.6,47.79,58.94Z"/><path class="cls-6" d="M58.37,29.73c24-.49,22.45-.49,22.45-.49q.06,2.93.12,5.86c0,.85,0,1.7.05,2.55l-5.59.11L64.2,44.54q0,2.41.1,4.82c-4.36.09-8.48.14-12.84.22L48,37.63a2.53,2.53,0,0,1,.93-2.71l5.22-4.32C55.18,29.71,56.55,29.77,58.37,29.73Z"/><path class="cls-7" d="M77.19,29.34c4.16-.09,3.63-.09,3.63-.09q.06,2.93.12,5.86c0,.85,0,1.7.05,2.55l-5.59.11L64.2,44.54q0,2.41.1,4.82l-2.76.05V43.1L75,35.26l2.16-.58Z"/><path class="cls-2" d="M48.28,46.82l19-.38a.42.42,0,0,1,.43.41l.11,5.23a.42.42,0,0,1-.41.43l-19,.38a.42.42,0,0,1-.43-.41l-.11-5.23A.42.42,0,0,1,48.28,46.82Z"/><path class="cls-8" d="M87.65,32.27a.66.66,0,1,0,0,1.32h1.48a.66.66,0,1,0,0-1.32Zm22.23,1.32a.66.66,0,1,0,0-1.32H108.4a.66.66,0,0,0,0,1.32Zm-5.93,0a.66.66,0,0,0,0-1.32h-3a.66.66,0,1,0,0,1.32Zm-7.41,0a.66.66,0,0,0,0-1.32h-3a.66.66,0,0,0,0,1.32Z"/><path class="cls-8" d="M87.33,29.32A.66.66,0,1,0,88,30.46l1.28-.74a.66.66,0,1,0-.66-1.14l-1.28.74Zm19.91-10h0l0,0h0a.66.66,0,0,0-.66-1.14h0l-1.28.74a.66.66,0,0,0,.66,1.14l1.14-.66.13-.08h0Zm0,0h0Zm-.66-1.14h0l0,0,0,0Zm.33.57.33.57,0,0-.29-.59ZM102.1,22.3a.66.66,0,1,0-.66-1.14l-2.57,1.48a.66.66,0,1,0,.66,1.14l2.57-1.48ZM95.68,26A.66.66,0,0,0,95,24.87l-2.57,1.48a.66.66,0,1,0,.66,1.14Z"/><path class="cls-8" d="M88,34.92a.66.66,0,1,0-.66,1.14l1.28.74a.66.66,0,0,0,.66-1.14L88,34.92Zm18.59,12.26h0l0,0a.66.66,0,0,0,.66-1.14h0l0,0-.66,1.14Zm.66-1.14-.66,1.14h0l-1.26-.73A.66.66,0,1,1,106,45.3l.87.5.4.23h0Zm0,0-.33.57.29-.59,0,0Zm-.66,1.14h0l0,0,0,0Zm-5.13-3a.66.66,0,1,0,.66-1.14l-2.57-1.48a.66.66,0,1,0-.66,1.14l2.57,1.48ZM95,40.51a.66.66,0,1,0,.66-1.14l-2.57-1.48A.66.66,0,1,0,92.46,39Z"/><path class="cls-9" d="M-1.55,54l36.27-.4L41.52,41l6.43-3.58,2.57,8.77c.23,1.06.74,2.54,1.61,2.51l27.2-.65c4.35-.1,5.19,1.28,5.31,2.75a3.21,3.21,0,0,1-1.54,3.47,22.18,22.18,0,0,1-7.49,2.08s8.71-1,8.75,3.37-6.65,4.08-9,4.43c-1.45.22,3.13-.07,5.27,1.5.9.66,1,2.25.63,3.38-1.27,3.81-9.57,3.17-9.57,3.17s3.66.3,4.49,1.95c.49,1,.07,2.51-1.3,3.67-1.15,1-2.91,1.66-6,1.73L-1.19,81.23Z"/><path class="cls-10" d="M59.89,71.58a.61.61,0,0,0,0,1.21H73.27a.6.6,0,1,0,0-1.21Z"/><path class="cls-10" d="M59.58,63.2a.61.61,0,1,0,0,1.21H77.73a.61.61,0,0,0,0-1.21Z"/><path class="cls-10" d="M58.88,55.25a.6.6,0,1,0,0,1.21L80,56.6a.6.6,0,1,0,0-1.21Z"/><path class="cls-11" d="M63.95,91.05a4.56,4.56,0,0,0-2.24.93l-1.27-1.27a1,1,0,1,0-.81.81l1.27,1.27A4.58,4.58,0,0,0,60,95h-1.8a1,1,0,1,0,0,1.15H60a4.58,4.58,0,0,0,.93,2.24l-1.27,1.27a1,1,0,1,0,.81.81l1.27-1.27a4.56,4.56,0,0,0,2.24.93V102a1,1,0,1,0,1.15,0v-1.8a4.56,4.56,0,0,0,2.24-.93l1.27,1.27a1,1,0,1,0,1.77-.53,1,1,0,0,0-1-.28l-1.27-1.27a4.57,4.57,0,0,0,.93-2.24h1.8a1,1,0,1,0,0-1.15h-1.8a4.57,4.57,0,0,0-.93-2.24l1.27-1.27a1,1,0,1,0-.53-1.77,1.06,1.06,0,0,0-.28,1L67.33,92a4.56,4.56,0,0,0-2.24-.93v-1.8a1,1,0,1,0-1.15,0Z"/><path class="cls-11" d="M65.47,92.19a3.5,3.5,0,0,0-1.87,0l-.53-1.29a.81.81,0,1,0-.82.34l.53,1.29a3.51,3.51,0,0,0-1.33,1.32l-1.29-.54a.81.81,0,1,0-.34.82l1.29.54a3.53,3.53,0,0,0,0,1.87l-1.29.53a.81.81,0,1,0,.33.82l1.29-.53a3.53,3.53,0,0,0,1.32,1.33L62.21,100a.81.81,0,1,0,.82.34L63.57,99a3.52,3.52,0,0,0,1.88,0l.53,1.29a.81.81,0,1,0,1.42.15.81.81,0,0,0-.6-.49l-.53-1.29a3.52,3.52,0,0,0,1.33-1.32l1.29.54a.82.82,0,0,0,.48.6.81.81,0,1,0-.14-1.42l-1.29-.54a3.55,3.55,0,0,0,0-1.87l1.29-.53a.81.81,0,1,0-.34-.82l-1.29.53a3.55,3.55,0,0,0-1.32-1.33l.54-1.29a.81.81,0,1,0-.9-1.11.82.82,0,0,0,.08.77Z"/><ellipse class="cls-12" cx="63.49" cy="93.67" rx="2.21" ry="1.51" transform="translate(-31.91 32.81) rotate(-23.34)"/><path class="cls-11" d="M56.57,89.47l16.83,10.86A10,10,0,0,0,56.57,89.47Zm15.91,12.27a10.26,10.26,0,0,1-.85,1,10,10,0,0,1-16-11.82l16.83,10.86ZM56.22,87.3a11.74,11.74,0,1,1-3.44,8.3A11.71,11.71,0,0,1,56.22,87.3Z"/><polygon class="cls-4" points="57.37 92 71.21 100.92 70.59 101.89 56.76 92.97 57.37 92"/></svg>