<svg xmlns="http://www.w3.org/2000/svg" viewBox="0 0 1280 720"><defs><style>.cls-1{fill:#fff;}.cls-2{fill:#ebebeb;}.cls-3{fill:#e0e0e0;}.cls-4{fill:#455a64;}.cls-5{fill:#f5f5f5;}.cls-6{fill:#fafafa;}.cls-7{fill:#263238;}.cls-8{fill:#e8505b;}.cls-9{fill:#7689a1;}.cls-10{fill:#697b8e;}.cls-11{fill:#627382;}.cls-12{fill:#ff7c84;}.cls-13{fill:#d16671;}.cls-14{fill:#ffb8bd;}.cls-15{fill:#e2a6ac;}.cls-16,.cls-28{fill:#3a85a3;}.cls-17{fill:#2d6a7c;}.cls-18{fill:#c9959d;}.cls-19{fill:#093c5b;}.cls-20{fill:#093f67;}.cls-21{fill:#ff9fb1;}.cls-22{fill:none;stroke:#ff7c84;stroke-linecap:round;stroke-miterlimit:10;stroke-width:0.99px;}.cls-23{fill:#06263a;}.cls-24{fill:#18323f;}.cls-25{fill:#254c5e;}.cls-26{fill:#31657e;}.cls-27{fill:#5a8497;}.cls-28{opacity:0.2;}</style></defs><title>asdad</title><g id="Layer_7" data-name="Layer 7"><rect class="cls-1" width="1280" height="720"/></g><g id="Background_Complete" data-name="Background Complete"><path class="cls-2" d="M830.33,479c-.35-2.18-10.85-12.87-19.6-18.3s-2.45,13.44-2.45,13.44L804.43,479l-6.65,4.63v6l8.05,10.24h1.75l14.7,3.41,9.8-3.41s2.1-9.19,2.1-10.24S830.68,481.16,830.33,479Z"/><path class="cls-3" d="M828.85,477.59a24,24,0,0,0-5,.54,20.69,20.69,0,0,0-10.18,6.18,30.71,30.71,0,0,0-6,10.45c-.52,1.47-.87,2.68-1.1,3.52a7.45,7.45,0,0,1-.4,1.3,6.31,6.31,0,0,1,.21-1.35,34.81,34.81,0,0,1,1-3.59,29.1,29.1,0,0,1,6-10.68,20.2,20.2,0,0,1,10.48-6.19,14.9,14.9,0,0,1,3.71-.34,8.78,8.78,0,0,1,1,.09C828.73,477.55,828.85,477.57,828.85,477.59Z"/><path class="cls-3" d="M832,488.72c0,.09-1.44.31-3.73.87a49.63,49.63,0,0,0-16.7,7.55c-1.94,1.35-3.07,2.29-3.12,2.22a4,4,0,0,1,.73-.74c.49-.45,1.23-1.07,2.18-1.79a42.62,42.62,0,0,1,16.84-7.61c1.17-.24,2.12-.39,2.78-.46A4,4,0,0,1,832,488.72Z"/><path class="cls-3" d="M824.26,490.07a5.61,5.61,0,0,1,.23,1.88,22.51,22.51,0,0,1-1.62,8.94,5.61,5.61,0,0,1-.87,1.68c-.15-.06,1-2.7,1.63-6.16S824.1,490.08,824.26,490.07Z"/><path class="cls-3" d="M819.5,480.65a28.31,28.31,0,0,0-7.35-1.81,20.92,20.92,0,0,0-5.33.29,4.48,4.48,0,0,0-2,.81s.07-.23.39-.49a4,4,0,0,1,1.54-.68,17.55,17.55,0,0,1,10.77.79A6.6,6.6,0,0,1,819.5,480.65Z"/><path class="cls-3" d="M820.51,469.6a17.28,17.28,0,0,0-12.8,5.28,5.64,5.64,0,0,1,1.34-1.66,14,14,0,0,1,9.35-3.85A5.65,5.65,0,0,1,820.51,469.6Z"/><rect class="cls-3" x="941.36" y="167.26" width="68.41" height="71.31"/><rect class="cls-4" x="936.73" y="167.26" width="68.41" height="71.31"/><path class="cls-5" d="M1005.16,238.6H936.71V167.24h68.45Z"/><rect class="cls-6" x="945.93" y="176.85" width="50.02" height="52.14"/><path class="cls-3" d="M945.93,229.34a8.17,8.17,0,0,1-1.23,1.44c-.8.84-1.92,2-3.18,3.22s-2.41,2.34-3.27,3.13a8,8,0,0,1-1.45,1.2A8,8,0,0,1,938,236.9c.8-.84,1.92-2,3.19-3.23s2.42-2.35,3.27-3.13A7.83,7.83,0,0,1,945.93,229.34Z"/><path class="cls-3" d="M995.95,229.21a8.17,8.17,0,0,1,1.44,1.23c.84.8,2,1.92,3.22,3.18s2.34,2.41,3.13,3.27a8,8,0,0,1,1.2,1.45,8,8,0,0,1-1.43-1.23c-.84-.8-2-1.92-3.23-3.19s-2.35-2.42-3.13-3.27A7.82,7.82,0,0,1,995.95,229.21Z"/><path class="cls-3" d="M995.81,177a8.16,8.16,0,0,1,1.23-1.44c.8-.84,1.92-2,3.18-3.22s2.41-2.34,3.27-3.13a8,8,0,0,1,1.45-1.2,8,8,0,0,1-1.23,1.43c-.8.84-1.92,2-3.19,3.23s-2.42,2.35-3.27,3.13A7.82,7.82,0,0,1,995.81,177Z"/><path class="cls-3" d="M945.79,177.12a8.17,8.17,0,0,1-1.43-1.23c-.84-.8-2-1.92-3.22-3.18s-2.34-2.41-3.13-3.27a8,8,0,0,1-1.2-1.45,8,8,0,0,1,1.43,1.23c.84.8,2,1.92,3.23,3.19s2.35,2.42,3.13,3.27A7.82,7.82,0,0,1,945.79,177.12Z"/><path class="cls-3" d="M995.81,229a2.41,2.41,0,0,1,0-.25V228l0-2.81c0-2.47,0-6.06-.05-10.63,0-9.13-.06-22.14-.1-37.72l.19.19-49.88,0h0l.22-.22c0,19.14,0,37,0,52.14l-.19-.19,36.12.1,10.14,0,2.68,0h0l-2.65,0-10.1,0-36.24.1h-.19V229c0-15.1,0-33,0-52.14v-.22h.23l49.88,0H996v.19c0,15.63-.07,28.68-.1,37.84l-.05,10.58c0,1.2,0,2.13,0,2.78v.71A1.73,1.73,0,0,1,995.81,229Z"/><path class="cls-5" d="M961.72,217a11.07,11.07,0,0,1-.49-14.55c1.39-1.6,3.24-2.76,4.53-4.44,2.79-3.64,2.75-9.36,6.63-11.8,2.83-1.78,6.9-.76,9,1.86a9.49,9.49,0,0,1,.9,9.51c-1,2.26-2.71,4.18-3.42,6.55s-.31,5.07-1.06,7.48c-.91,2.91-4,4.75-6.84,5.81a12.83,12.83,0,0,1-9.2-.41"/><path class="cls-3" d="M975.78,193a9.07,9.07,0,0,1-.48,1.38c-.33.88-.86,2.13-1.55,3.66a101.89,101.89,0,0,1-13.8,22.27c-1.06,1.3-2,2.33-2.59,3a9,9,0,0,1-1,1,9.06,9.06,0,0,1,.89-1.16c.6-.72,1.44-1.78,2.47-3.1a120.22,120.22,0,0,0,13.76-22.21c.72-1.51,1.3-2.74,1.68-3.6A9.06,9.06,0,0,1,975.78,193Z"/><path class="cls-3" d="M965.44,202.07a16.84,16.84,0,0,1,.4,2.64c.2,1.65.44,3.94.7,6.53l-.33-.17,1.08-.63c2.5-1.46,4.78-2.76,6.43-3.68a20.78,20.78,0,0,1,2.73-1.41,20.77,20.77,0,0,1-2.57,1.68c-1.62,1-3.87,2.33-6.37,3.79l-1.08.63-.3.18,0-.35c-.24-2.59-.43-4.89-.55-6.54A16.83,16.83,0,0,1,965.44,202.07Z"/><path class="cls-3" d="M978.58,198.21a8.26,8.26,0,0,1-1.69.94c-1.07.53-2.55,1.24-4.2,2l-.51.23-.27.12,0-.29c-.26-1.67-.47-3.15-.6-4.23a7.12,7.12,0,0,1-.12-1.74,7.13,7.13,0,0,1,.42,1.69c.21,1.06.47,2.54.74,4.2L972,201l.51-.24c1.65-.75,3.16-1.41,4.26-1.87A8.27,8.27,0,0,1,978.58,198.21Z"/><rect class="cls-3" x="807.01" y="209.91" width="99.52" height="103.75"/><rect class="cls-4" x="800.27" y="209.91" width="99.52" height="103.75"/><path class="cls-5" d="M899.83,313.69H800.24V209.88h99.59Z"/><rect class="cls-6" x="813.65" y="223.86" width="72.77" height="75.85"/><path class="cls-3" d="M813.65,300.21a11.88,11.88,0,0,1-1.8,2.09c-1.16,1.23-2.8,2.89-4.63,4.69s-3.51,3.41-4.75,4.55a11.58,11.58,0,0,1-2.1,1.75,11.6,11.6,0,0,1,1.79-2.08c1.16-1.23,2.8-2.89,4.64-4.7s3.52-3.42,4.76-4.56A11.38,11.38,0,0,1,813.65,300.21Z"/><path class="cls-3" d="M886.42,300a11.87,11.87,0,0,1,2.09,1.8c1.23,1.16,2.89,2.8,4.69,4.63s3.41,3.51,4.55,4.75a11.57,11.57,0,0,1,1.75,2.1,11.61,11.61,0,0,1-2.08-1.79c-1.23-1.16-2.89-2.8-4.7-4.64s-3.42-3.52-4.56-4.76A11.38,11.38,0,0,1,886.42,300Z"/><path class="cls-3" d="M886.22,224.06A11.87,11.87,0,0,1,888,222c1.16-1.23,2.8-2.89,4.63-4.69s3.51-3.41,4.75-4.55a11.57,11.57,0,0,1,2.1-1.75,11.6,11.6,0,0,1-1.79,2.08c-1.16,1.23-2.8,2.89-4.64,4.7s-3.52,3.42-4.76,4.56A11.38,11.38,0,0,1,886.22,224.06Z"/><path class="cls-3" d="M813.45,224.24a11.87,11.87,0,0,1-2.09-1.8c-1.23-1.16-2.89-2.8-4.69-4.63s-3.41-3.51-4.55-4.75a11.58,11.58,0,0,1-1.75-2.1,11.6,11.6,0,0,1,2.08,1.79c1.23,1.16,2.89,2.8,4.7,4.64s3.42,3.52,4.56,4.76A11.37,11.37,0,0,1,813.45,224.24Z"/><path class="cls-3" d="M886.22,299.71a3.47,3.47,0,0,1,0-.37l0-1.06,0-4.1c0-3.59,0-8.82-.07-15.46l-.14-54.87.28.28-72.56,0h0l.32-.32c0,27.84,0,53.89,0,75.85l-.28-.28,52.54.14,14.76.07,3.9,0,1,0,.35,0-.32,0-1,0-3.85,0-14.7.07-52.72.14h-.28v-.28c0-22,0-48,0-75.85v-.32h.33l72.56,0h.28v.28c-.06,22.74-.11,41.72-.14,55.05,0,6.61-.06,11.82-.07,15.4,0,1.75,0,3.1,0,4l0,1A2.56,2.56,0,0,1,886.22,299.71Z"/><path class="cls-5" d="M858.14,277.78a45.7,45.7,0,0,0-6.67-15c-1.16-1.7-2.69-3.47-4.75-3.62a4.72,4.72,0,0,0-4,2.1,8.93,8.93,0,0,0-1.42,4.47c-3.51-1.81-7.88-2.44-11.41-.65s-5.66,6.42-3.88,9.95,6.27,4.56,10.19,5.19a4.39,4.39,0,0,0-1.1,5.4,6.53,6.53,0,0,0,4.77,3.26,9.42,9.42,0,0,0,5.92-.57,34.14,34.14,0,0,0,12.38-10.59"/><path class="cls-3" d="M872.18,279.59a7.14,7.14,0,0,1-1.56,0c-1-.06-2.45-.17-4.23-.35-3.56-.36-8.33-1-13.86-2s-10.21-2.11-13.67-3c-1.73-.46-3.13-.86-4.08-1.16a7.14,7.14,0,0,1-1.47-.53,7.14,7.14,0,0,1,1.53.28l4.13,1c3.49.8,8.31,1.85,13.68,2.83s10.25,1.69,13.8,2.16l4.2.56A7.16,7.16,0,0,1,872.18,279.59Z"/><path class="cls-3" d="M846.14,262.38a4,4,0,0,1,.6,1c.35.66.81,1.64,1.31,2.89a44.38,44.38,0,0,1,2.73,10.22l0,.25-.23.1-.87.37a53.09,53.09,0,0,0-9.61,5.53c-2.31,1.67-3.63,2.85-3.7,2.77a4.41,4.41,0,0,1,.84-.92c.58-.56,1.45-1.33,2.58-2.22a45.28,45.28,0,0,1,9.63-5.76l.88-.38-.2.35a52.38,52.38,0,0,0-2.5-10.16C846.74,263.91,846.05,262.42,846.14,262.38Z"/><path class="cls-3" d="M837.45,266.61A17.81,17.81,0,0,1,839,269c.92,1.47,2.27,3.45,3.78,5.71l.26.39-.45.11-.91.22c-2.86.66-5.47,1.09-7.36,1.43a17.78,17.78,0,0,1-3.07.46,12.5,12.5,0,0,1,3-.91c1.86-.46,4.47-1,7.3-1.62l.9-.21-.19.5c-1.49-2.25-2.8-4.3-3.62-5.84A9.79,9.79,0,0,1,837.45,266.61Z"/><path class="cls-5" d="M864.19,258.65a45.7,45.7,0,0,0,4.46-15.76c.2-2.05.15-4.39-1.33-5.82a4.72,4.72,0,0,0-4.44-1,8.93,8.93,0,0,0-4,2.52c-1.53-3.64-4.48-6.92-8.34-7.81s-8.46,1.3-9.35,5.15,1.89,7.52,4.49,10.51a4.39,4.39,0,0,0-4.31,3.44,6.53,6.53,0,0,0,1.57,5.56,9.42,9.42,0,0,0,4.91,3.36,34.14,34.14,0,0,0,16.29-.19"/><path class="cls-3" d="M864.19,238.33a4,4,0,0,1-.07,1.16c-.09.74-.28,1.81-.57,3.12a44.38,44.38,0,0,1-3.6,9.95l-.11.22-.25-.05-.92-.19a53.1,53.1,0,0,0-11.05-.95c-2.85.05-4.61.27-4.62.16a4.42,4.42,0,0,1,1.22-.27c.79-.12,1.95-.26,3.38-.35a45.29,45.29,0,0,1,11.19.77l.94.19-.36.17a52.36,52.36,0,0,0,3.75-9.77C863.81,239.93,864.09,238.31,864.19,238.33Z"/><path class="cls-3" d="M855.11,235.57a11.89,11.89,0,0,1,.17,2.73c0,1.69,0,4,0,6.67v.42l-.41-.11-.75-.21c-2.71-.75-5.15-1.46-6.9-2a13.72,13.72,0,0,1-2.82-1,13.49,13.49,0,0,1,2.93.57c1.79.43,4.26,1.08,7,1.83l.75.21-.42.31c.06-2.63.15-5,.24-6.67A11.92,11.92,0,0,1,855.11,235.57Z"/><path class="cls-3" d="M848.53,238a2.29,2.29,0,0,1,.48.41l1.29,1.26c.57.54,1.22,1.25,1.95,2.09s1.58,1.78,2.44,2.9a87.23,87.23,0,0,1,5.68,8.05,112.34,112.34,0,0,1,5.78,10.6,110.77,110.77,0,0,1,4.53,11.19,85.46,85.46,0,0,1,2.62,9.5l.41,2,.28,1.76c.17,1.1.32,2,.37,2.83l.14,1.8a2.28,2.28,0,0,1,0,.63,2.34,2.34,0,0,1-.14-.62l-.26-1.78c-.09-.78-.27-1.71-.47-2.8L873.3,286l-.45-1.94a94.78,94.78,0,0,0-2.74-9.41,119.93,119.93,0,0,0-4.55-11.1c-1.82-3.85-3.8-7.4-5.7-10.56a97,97,0,0,0-5.53-8.09c-.82-1.13-1.63-2.1-2.35-2.94s-1.32-1.59-1.86-2.15l-1.2-1.34A2.33,2.33,0,0,1,848.53,238Z"/><path class="cls-2" d="M1116.38,530.84c-23-14.07-29.76-42.39-30.46-68.17-.12-4.3-.86-8.8.95-12.69s6.42-6.76,10.38-5.18c3.28,1.31,4.9,4.93,6.87,7.89a25.17,25.17,0,0,0,10.66,9c2.82,1.25,6.26,1.91,8.87.26,3.58-2.27,3.7-7.41,3.42-11.68l-1.6-23.87c-.29-4.27-.57-8.63.52-12.76s3.79-8.08,7.78-9.47,9.16.65,10.27,4.78c.46,1.72.22,3.55.45,5.31s1.17,3.68,2.89,4.07,3.37-.92,4.57-2.25c4.15-4.58,6.8-10.32,9.26-16s4.83-11.52,8.54-16.46,9-9,15.11-9.73,12.84,2.66,14.76,8.57-1.22,12.25-4.75,17.36a95.53,95.53,0,0,1-18.7,20.13c-1.29,1-2.68,2.16-3.1,3.77-.75,2.9,2.12,5.57,5,6.33,3.25.87,6.68.33,10,.51s7.05,1.44,8.5,4.51c2,4.26-1.36,9.06-4.77,12.27a81.83,81.83,0,0,1-23.32,15.43c-3.07,1.34-6.32,2.55-8.72,4.91s-3.69,6.29-2,9.21,5.7,3.64,9,2.83,6.09-2.78,9.15-4.15c5.73-2.57,13.34-2.63,17.41,2.21,2.67,3.18,3.17,7.81,2.17,11.87s-3.33,7.63-5.83,11c-8.73,11.61-20.24,21.23-33.57,26.78s-25.87,7.6-39.7,3.47"/><path class="cls-3" d="M1117.2,549.94a187.9,187.9,0,0,1,4.83-35.63,383.29,383.29,0,0,1,12.68-42.13l3.89-10.87c1.29-3.57,2.56-7.1,4-10.48a191.51,191.51,0,0,1,9.51-19c3.31-5.88,6.67-11.34,9.85-16.42s6.25-9.76,9.23-13.9a151.91,151.91,0,0,1,15.47-18.49c2-2,3.59-3.56,4.68-4.58l1.25-1.15a3.2,3.2,0,0,1,.45-.37,3,3,0,0,1-.39.43l-1.2,1.21c-1.06,1.06-2.62,2.62-4.57,4.68a160.69,160.69,0,0,0-15.24,18.6c-2.94,4.15-6,8.84-9.13,13.92s-6.49,10.56-9.78,16.44a193.64,193.64,0,0,0-9.43,18.9c-1.45,3.37-2.71,6.87-4,10.45l-3.89,10.87a393,393,0,0,0-12.72,42,191.15,191.15,0,0,0-5,35.48"/><path class="cls-3" d="M1142.85,450.78a8.69,8.69,0,0,1-.53-1.8c-.3-1.17-.67-2.87-1.1-5-.86-4.22-1.86-10.08-2.93-16.55s-2.14-12.3-3.07-16.49c-.46-2.1-.84-3.79-1.13-5a8.57,8.57,0,0,1-.35-1.84,8.51,8.51,0,0,1,.65,1.76c.37,1.14.84,2.82,1.37,4.91,1.07,4.17,2.23,10,3.3,16.49l2.7,16.58.85,5A8.55,8.55,0,0,1,1142.85,450.78Z"/><path class="cls-3" d="M1197.14,437.17a11.88,11.88,0,0,1-2.17.4c-1.4.21-3.43.51-5.93,1-5,.85-11.86,2.26-19.36,4.16s-14.21,3.92-19,5.52c-2.41.78-4.35,1.47-5.69,1.93a11.8,11.8,0,0,1-2.11.66,11.73,11.73,0,0,1,2-.95c1.31-.55,3.22-1.32,5.62-2.18,4.78-1.74,11.49-3.84,19-5.76A194,194,0,0,1,1189,438c2.51-.37,4.56-.59,6-.7A11.66,11.66,0,0,1,1197.14,437.17Z"/><path class="cls-3" d="M1122.65,513.26a2.82,2.82,0,0,1-.42-.65l-1.06-1.93c-.91-1.68-2.17-4.14-3.69-7.21-3-6.13-7-14.73-11.16-24.27s-8-18.17-10.94-24.36l-3.46-7.31-.93-2a2.82,2.82,0,0,1-.28-.72,2.9,2.9,0,0,1,.42.65l1.06,1.93c.91,1.68,2.17,4.14,3.69,7.21,3,6.13,7,14.73,11.16,24.28s8,18.17,10.94,24.36l3.46,7.31.93,2A2.85,2.85,0,0,1,1122.65,513.26Z"/><path class="cls-3" d="M1194.19,485.29a3,3,0,0,1-.71.34l-2.08.84-7.66,3c-6.47,2.54-15.36,6.16-25.18,10.16s-18.76,7.54-25.28,10c-3.26,1.21-5.91,2.15-7.75,2.77l-2.13.7a2.86,2.86,0,0,1-.76.19,3,3,0,0,1,.71-.34l2.08-.84,7.66-3c6.47-2.54,15.36-6.16,25.18-10.16s18.75-7.54,25.28-9.95c3.26-1.21,5.91-2.15,7.75-2.77l2.13-.7A2.87,2.87,0,0,1,1194.19,485.29Z"/><path class="cls-5" d="M791.86,503.34,784,506.62l1.38,9.11-.32,6,11,2.58,9.11-3.85,6.25,1.06,3.18-4.76-2.12-8.89L810,502l-6.14-1.69s-4.13-6.46-4.5-6.35-6.51,1.38-6.51,1.38l-1.59,3.92.32,3.6"/><path class="cls-3" d="M796.17,524.2a13.21,13.21,0,0,1-1.58-2.75c-.89-1.75-1.85-4.29-3.21-6.91a16.74,16.74,0,0,0-2.36-3.39c-.84-.94-1.8-1.62-2.5-2.32s-1.26-1.24-1.64-1.63-.59-.61-.56-.64a16.42,16.42,0,0,1,2.45,2c.71.65,1.69,1.3,2.6,2.27a16,16,0,0,1,2.47,3.47c1.39,2.68,2.29,5.22,3.09,7S796.24,524.16,796.17,524.2Z"/><path class="cls-3" d="M812.06,513.44c-.07.06-.92-.93-2.49-2.31a29.62,29.62,0,0,0-14.52-7c-2.06-.36-3.36-.4-3.36-.49a3.13,3.13,0,0,1,.92-.05,18.82,18.82,0,0,1,2.5.18,26.57,26.57,0,0,1,14.72,7,18.85,18.85,0,0,1,1.71,1.83A3.13,3.13,0,0,1,812.06,513.44Z"/><path class="cls-3" d="M803.58,507.42a8.16,8.16,0,0,1,.23,2.48,24,24,0,0,1-.76,6,13.34,13.34,0,0,1-2.49,5.49,3.24,3.24,0,0,1-2.14,1.28,6.55,6.55,0,0,0,1.86-1.52,14.84,14.84,0,0,0,2.26-5.38,30.62,30.62,0,0,0,.9-5.84A21.15,21.15,0,0,1,803.58,507.42Z"/><path class="cls-3" d="M799.52,495.35a14.6,14.6,0,0,1-1.38,9c-.15-.05.52-2,.9-4.47S799.37,495.36,799.52,495.35Z"/><path class="cls-3" d="M809.75,510.89a11,11,0,0,1-4.83,9.55,17,17,0,0,0,4.83-9.55Z"/><path class="cls-5" d="M815.21,498.37l8.25-2,0-9.21,1.24-5.91L814.24,477l-9.59,2.4-6-2-3.87,4.22.73,9.11,1.6,6.25,5.81,2.62s3.09,7,3.47,7,6.65-.36,6.65-.36l2.17-3.63.24-3.61"/><path class="cls-3" d="M814.15,477.1a13.21,13.21,0,0,1,1.14,3c.61,1.86,1.17,4.53,2.11,7.32a16.74,16.74,0,0,0,1.82,3.71c.69,1.06,1.53,1.88,2.11,2.68s1.05,1.42,1.37,1.87a2.92,2.92,0,0,1,.46.72A16.42,16.42,0,0,1,821,494c-.6-.75-1.47-1.54-2.22-2.64a16,16,0,0,1-1.91-3.8c-1-2.86-1.46-5.51-2-7.39S814.08,477.13,814.15,477.1Z"/><path class="cls-3" d="M796.79,485.29c.08,0,.77,1.06,2.11,2.66a29.62,29.62,0,0,0,13.28,9.1c2,.67,3.26.91,3.25,1a3.12,3.12,0,0,1-.92-.09,18.83,18.83,0,0,1-2.44-.56,26.57,26.57,0,0,1-13.46-9.22,18.82,18.82,0,0,1-1.41-2.07A3.13,3.13,0,0,1,796.79,485.29Z"/><path class="cls-3" d="M804.24,492.54a8.16,8.16,0,0,1,.16-2.48,24,24,0,0,1,1.67-5.77,13.34,13.34,0,0,1,3.3-5,3.25,3.25,0,0,1,2.31-.93,6.56,6.56,0,0,0-2.07,1.21,14.83,14.83,0,0,0-3.06,5,30.62,30.62,0,0,0-1.79,5.64A21.15,21.15,0,0,1,804.24,492.54Z"/><path class="cls-3" d="M806.41,505.09a14.6,14.6,0,0,1,2.75-8.68c.13.08-.82,1.89-1.57,4.28S806.56,505.11,806.41,505.09Z"/><path class="cls-3" d="M798.68,488.16a11,11,0,0,1,6.24-8.7,17,17,0,0,0-6.24,8.7Z"/><path class="cls-6" d="M833.69,487.1l8.25-2,0-9.21,1.24-5.91-10.49-4.23-9.59,2.4-6-2-3.87,4.22.73,9.11,1.6,6.25,5.81,2.62s3.09,7,3.47,7,6.65-.36,6.65-.36l2.17-3.63.24-3.61"/><path class="cls-3" d="M832.63,465.82a13.21,13.21,0,0,1,1.14,3c.61,1.86,1.17,4.53,2.11,7.32a16.75,16.75,0,0,0,1.82,3.71c.69,1.06,1.53,1.88,2.11,2.68s1.05,1.42,1.37,1.87a2.92,2.92,0,0,1,.46.72,16.41,16.41,0,0,1-2.12-2.35c-.6-.75-1.47-1.54-2.22-2.64a16,16,0,0,1-1.91-3.8c-1-2.86-1.46-5.51-2-7.39S832.56,465.85,832.63,465.82Z"/><path class="cls-3" d="M815.28,474c.08,0,.77,1.06,2.11,2.66a29.62,29.62,0,0,0,13.28,9.1c2,.67,3.26.91,3.25,1a3.13,3.13,0,0,1-.92-.09,18.83,18.83,0,0,1-2.44-.56,26.57,26.57,0,0,1-13.46-9.22,18.83,18.83,0,0,1-1.41-2.07A3.13,3.13,0,0,1,815.28,474Z"/><path class="cls-3" d="M822.73,481.26a8.16,8.16,0,0,1,.16-2.48,24,24,0,0,1,1.67-5.77,13.34,13.34,0,0,1,3.3-5,3.25,3.25,0,0,1,2.31-.93,6.56,6.56,0,0,0-2.07,1.21,14.83,14.83,0,0,0-3.06,5,30.62,30.62,0,0,0-1.79,5.64A21.15,21.15,0,0,1,822.73,481.26Z"/><path class="cls-3" d="M824.89,493.82a14.6,14.6,0,0,1,2.75-8.68c.13.08-.82,1.89-1.57,4.28S825,493.83,824.89,493.82Z"/><path class="cls-3" d="M817.16,476.88a11,11,0,0,1,6.24-8.7,17,17,0,0,0-6.24,8.7Z"/><path class="cls-2" d="M791.59,538c-2.16-1.85-7-7.73-3.27-14.56,1.36-2.5,4.26-3.74,6.88-4.85s5.38-2.06,7.54-3.91c4.09-3.48,5.22-9.26,7.93-13.9,3.12-5.33,8.93-9.32,15.08-9,7,.32,12.91,6.07,15.57,12.62s2.75,13.83,2.81,20.91c0,3.91-.14,8.33-3,11-2.65,2.44-6.64,2.47-10.23,2.36l-38.46-1.18"/><path class="cls-3" d="M865.15,432.26H764l18.22,108.65a12.13,12.13,0,0,0,8.64,9.67l.35.1c.3.08.59.18.9.23a12.68,12.68,0,0,0,2.06.24l0,.1.49-.08h45.08a12.68,12.68,0,0,0,2.48-.25,12.18,12.18,0,0,0,10.23-10.62l8.78-74.86.4-3h0l3.48-29.65Zm-19.08,69.3H835.69l1-31.53h12Zm3.7-31.53h9.94L856,501.56h-8.93Zm-29.66,66.49-.63-27.39h14.95l-.91,27.39ZM804,509.13h14.53l.63,27.39h-13Zm1.12,27.39H792.9c-1.16-7.4-2.66-17-4.29-27.39h14.34Zm-1.71-35L800.91,470h16.66l.73,31.53Zm15.94,0L818.58,470h17.15l-1,31.53Zm-.9-39.09-.67-29.2H837l-1,29.2Zm-1,0H800.33l-2.27-29.2h18.67Zm-18.08,0H781.25c-.64-4-1.25-7.85-1.79-11.29-1.88-11.81-2.59-16.25-3-17.92h20.58Zm.59,7.56,2.45,31.53H787.42l-1.52-9.67c-1.17-7.44-2.34-14.88-3.45-21.86ZM786.4,501.56h-9.76L771.35,470h10.08C783,479.78,784.68,490.62,786.4,501.56Zm1.19,7.56c1.49,9.48,3,18.83,4.29,27.39H782.5l-4.59-27.39Zm46.94,27.39.91-27.39h10l-2.34,27.39Zm2.46-74,1-29.2H851.9l-2.49,29.2Zm-61.47-29.2c.4,2.11,2.25,13.6,4.72,29.2H770.08l-4.9-29.2Zm76.39,103.25h-7.82l2.34-27.39h8.69Zm8.69-74H850.42l2.49-29.2H864Z"/></g><g id="Tissue"><path class="cls-5" d="M818.54,537.71l4.56-8.2-7.42-7-3.85-5.46-11.32,5.29-5.28,9.56-6.15,3.35.5,6.31,7.92,6.27,6.26,3.41,6.49-2.73s8,2.79,8.25,2.44,4.71-5.64,4.71-5.64l-1.3-4.49L819.18,538"/><path class="cls-3" d="M819.18,538a1,1,0,0,1,.2.17l.54.54L822,540.8l0,0v0l1.34,4.47,0,.07,0,.06-4.51,5.47-.16.19a.33.33,0,0,1-.17.1h-.24a5.14,5.14,0,0,1-.53-.1c-.34-.08-.68-.17-1-.26-.68-.19-1.38-.4-2.09-.63q-2.13-.67-4.42-1.46h.15l-6.48,2.74-.1,0-.1-.05-6.26-3.4h0l-7.92-6.27-.09-.07v-.11l-.5-6.31v-.17l.15-.08.62-.34,5.53-3-.1.1,5.29-9.55,0-.07.07,0,11.33-5.26.17-.08.11.15,3.83,5.47,0,0,7.38,7,.08.08-.06.1-3.42,6-.92,1.58a.32.32,0,1,1-.07,0l.86-1.62,3.3-6.08,0,.18-7.45-6.93h0v0l-3.87-5.44.27.07-11.31,5.31.11-.1-5.27,9.57,0,.07-.07,0-5.53,3-.62.34.13-.25.5,6.31-.1-.18,7.91,6.28,0,0,6.25,3.42h-.2l6.5-2.71.08,0,.08,0q2.28.8,4.39,1.48c.7.23,1.39.44,2.07.64.34.1.67.19,1,.27l.48.09h.14s0,0,0,.07l0,0,0,0h0l-.11-.09.16-.19,4.59-5.43,0,.13-1.26-4.5,0,0-2-2.2-.51-.57A1,1,0,0,1,819.18,538Z"/><path class="cls-5" d="M800.34,522.32a26.86,26.86,0,0,0,.81,6.42,9,9,0,0,0,3.63,5.2c2.14,1.33,4.8,1.36,7.3,1.7a3.75,3.75,0,0,1,2.78,1.31,5.55,5.55,0,0,1,.54,2.32,7.31,7.31,0,0,0,7.5,6.06"/><path class="cls-3" d="M822.9,545.32s-.13,0-.37.06a5.16,5.16,0,0,1-1.08,0,7.43,7.43,0,0,1-6.36-6.71,3.67,3.67,0,0,0-.4-1.51,2.3,2.3,0,0,0-1.25-.93,19.42,19.42,0,0,0-3.58-.56,16.35,16.35,0,0,1-3.67-.75,7.36,7.36,0,0,1-3-1.91,10.69,10.69,0,0,1-2.54-5.29,23.44,23.44,0,0,1-.39-3.93,7.19,7.19,0,0,1,0-1.44,8.2,8.2,0,0,1,.17,1.43,29.45,29.45,0,0,0,.55,3.86,10.58,10.58,0,0,0,2.53,5,7,7,0,0,0,2.78,1.76,16.28,16.28,0,0,0,3.55.71,18.94,18.94,0,0,1,3.69.6,2.79,2.79,0,0,1,1.5,1.15,4.08,4.08,0,0,1,.45,1.72,7,7,0,0,0,2.49,4.9,7.49,7.49,0,0,0,3.42,1.66C822.38,545.31,822.9,545.26,822.9,545.32Z"/><path class="cls-3" d="M813.38,536a3.92,3.92,0,0,1-.34,1,6.37,6.37,0,0,1-1.68,2.51,3.55,3.55,0,0,1-2,.86A8.73,8.73,0,0,1,807,540a2.1,2.1,0,0,0-1.13.05,2.59,2.59,0,0,0-1,.71c-.3.32-.57.69-.9,1a6.67,6.67,0,0,1-1.13,1,8.47,8.47,0,0,1-5.34,1.2,13.87,13.87,0,0,1-4.3-1.19,27.86,27.86,0,0,1-2.66-1.36,4.34,4.34,0,0,1-.92-.6c0-.09,1.41.67,3.72,1.62a14.41,14.41,0,0,0,4.2,1.05,8.17,8.17,0,0,0,5-1.16,6.27,6.27,0,0,0,1-.87l.91-1a3.05,3.05,0,0,1,1.17-.83,2.57,2.57,0,0,1,1.39-.05,9,9,0,0,0,2.25.45,3.22,3.22,0,0,0,1.76-.71,6.77,6.77,0,0,0,1.73-2.31A5.16,5.16,0,0,1,813.38,536Z"/><path class="cls-3" d="M808.88,535.21a10,10,0,0,1,.18-2.45,49.73,49.73,0,0,1,3-11.45,10,10,0,0,1,1.06-2.22,13.65,13.65,0,0,1-.71,2.35c-.48,1.43-1.11,3.42-1.7,5.64s-1,4.26-1.31,5.74A13.66,13.66,0,0,1,808.88,535.21Z"/></g><g id="Floor"><path class="cls-7" d="M1214.6,551.3c0,.14-99.36.26-221.9.26s-221.92-.12-221.92-.26S870.12,551,992.7,551,1214.6,551.16,1214.6,551.3Z"/></g><g id="Plant"><path class="cls-7" d="M1107.73,254.14s0-.16.08-.47l.29-1.38,1.17-5.3,4.41-19.48,14.78-64.4.26-1.14.26,1.14.32,1.43L1144,230l4.4,19.84,1.17,5.4.29,1.41c.06.32.08.48.08.48s-.05-.16-.13-.47l-.34-1.4-1.27-5.38-4.57-19.8-14.88-65.39-.32-1.43h.52L1114,227.59,1109.48,247l-1.27,5.28-.34,1.37C1107.79,254,1107.73,254.14,1107.73,254.14Z"/><path class="cls-4" d="M1107.72,273.27V257.1h43.13v16.17A18.82,18.82,0,0,1,1132,292.09h-5.49A18.82,18.82,0,0,1,1107.72,273.27Z"/><path class="cls-7" d="M1107.72,257.1a4.91,4.91,0,0,1,.49.68l1.32,2,4.75,7.42,15.51,24.57.11.18h-.45l15-24.71,4.61-7.45,1.28-2a4.88,4.88,0,0,1,.48-.68,4.87,4.87,0,0,1-.38.74l-1.19,2.06-4.46,7.54-14.91,24.79-.22.37-.23-.37-.11-.18L1114,267.4l-4.61-7.51-1.23-2.06A4.93,4.93,0,0,1,1107.72,257.1Z"/><circle class="cls-7" cx="1128.86" cy="162.97" r="4.71"/><circle class="cls-7" cx="1129.29" cy="293.84" r="2.02"/><path class="cls-7" d="M1128.39,294.6l.32-.16a4.47,4.47,0,0,0-2,3.34,11.73,11.73,0,0,0,.35,4c.09.42.31.94.74.92s.57-.48.63-.86a8.44,8.44,0,0,0,.06-2.42,4.23,4.23,0,0,0,.94,2.85c.13.15.31.31.5.26s.26-.26.31-.44a9.41,9.41,0,0,0,.3-2.07,3.22,3.22,0,0,0,.64,1.68,1.11,1.11,0,0,0,1.61.1,1.53,1.53,0,0,0,.17-1.18,13.9,13.9,0,0,0-2.82-6.62"/><path class="cls-8" d="M1110.44,257.1s-19.38-22.34-17.22-23.15,19.38,11.57,19.38,11.57-14.8-33.1-11.84-35.53,18.57,29.34,18.57,29.34-2.42-46.29,0-46.83,11.3,46.29,11.3,46.29,13.19-42.79,17-42.79-4,41.18-4,41.18,15.61-26.38,18-22.88-11,32-11,32,19.65-16.42,20.45-14.26-21.26,25-21.26,25Z"/><ellipse class="cls-7" cx="1115.17" cy="240.02" rx="0.27" ry="18.16" transform="translate(-0.52 477.62) rotate(-24.17)"/><ellipse class="cls-7" cx="1124.4" cy="242.1" rx="0.27" ry="14.56" transform="translate(-14.09 78.62) rotate(-3.98)"/><path class="cls-7" d="M1145,206.84a2,2,0,0,1-.11.52l-.43,1.47-1.62,5.39c-1.37,4.55-3.2,10.86-5.07,17.86s-3.42,13.39-4.5,18L1132,255.6l-.36,1.49a.27.27,0,1,1-.1,0l.27-1.51c.24-1.31.62-3.2,1.12-5.52,1-4.65,2.48-11.06,4.35-18.08s3.77-13.31,5.23-17.84c.73-2.26,1.34-4.09,1.78-5.35l.52-1.44A2.05,2.05,0,0,1,1145,206.84Z"/><ellipse class="cls-7" cx="1145.65" cy="243.15" rx="15.16" ry="0.27" transform="translate(291.39 1044.32) rotate(-55.15)"/><path class="cls-7" d="M1117,256.63a7.38,7.38,0,0,1-1.7-1.21,48,48,0,0,1-7-7.18,7.37,7.37,0,0,1-1.17-1.73c.12-.1,2.14,2.34,4.86,5.13S1117.07,256.5,1117,256.63Z"/><ellipse class="cls-7" cx="1129.17" cy="252.38" rx="0.27" ry="4.65" transform="translate(-18.26 103.61) rotate(-5.21)"/><path class="cls-1" d="M1150.85,267.17a10.42,10.42,0,0,1-1.67.35c-1.08.19-2.64.43-4.58.7a150.42,150.42,0,0,1-15.24,1.36,97,97,0,0,1-15.29-.64c-1.94-.25-3.51-.51-4.58-.74a10.4,10.4,0,0,1-1.66-.39,10.43,10.43,0,0,1,1.69.19c1.08.17,2.65.36,4.59.57a113.19,113.19,0,0,0,15.23.48c6-.21,11.33-.76,15.21-1.2l4.6-.53A10.44,10.44,0,0,1,1150.85,267.17Z"/><path class="cls-1" d="M1150.85,272a10.43,10.43,0,0,1-1.67.35c-1.08.19-2.64.43-4.58.7a150.42,150.42,0,0,1-15.24,1.36,97,97,0,0,1-15.29-.64c-1.94-.25-3.51-.51-4.58-.74a10.38,10.38,0,0,1-1.66-.39,10.45,10.45,0,0,1,1.69.19c1.08.17,2.65.36,4.59.57a113.18,113.18,0,0,0,15.23.48c6-.21,11.33-.76,15.21-1.2l4.6-.53A10.4,10.4,0,0,1,1150.85,272Z"/><path class="cls-7" d="M1129.17,131.54a4.53,4.53,0,0,1,.1,1.1c0,.71.06,1.74.08,3,0,2.54.08,6,.08,9.92s0,7.38-.08,9.92c0,1.27-.05,2.3-.08,3a.56.56,0,1,1-.2,0c0-.71-.06-1.74-.08-3,0-2.54-.08-6-.08-9.92s0-7.38.08-9.92c0-1.27.05-2.3.08-3A4.54,4.54,0,0,1,1129.17,131.54Z"/><polygon class="cls-9" points="922.43 550.47 1068.42 550.47 1022.82 372.08 940.43 368.88 922.43 550.47"/><path class="cls-10" d="M1022.82,372.08l-10.32-.4c-5.26,18-13,37.4-31.36,45.29-14.3,6.14-30.3,7.31-46.1,6.31L922.43,550.46h146Z"/><path class="cls-11" d="M936.54,497.1c14.17-3.87,30-10,38.29-19,0,0,1.2,20.8,22,34,14.35,9.1,12.33,27.72,9.69,38.4h61.9l-45.6-178.38-10.32-.4c-5.26,18-13,37.4-31.36,45.29-14.3,6.14-30.3,7.31-46.1,6.31L922.43,550.46h15.14Z"/><path class="cls-12" d="M1007.62,378.08s9.6,6.8-.8,23.2-35.6,33.2-22,69.59,57,35.4,58.19,79.39h91.73s-3.94-11.8-19.14-21-39.57-3-30.77-31,18-25-4.82-49.8-28.8-68.39-30.4-79.59-9.2-29.6-27.6-28.4S1007.62,378.08,1007.62,378.08Z"/><path class="cls-13" d="M1084.84,498.28c.56-1.78,1.12-3.44,1.68-5-2,3-4.1,6-6.12,9-2.62,4-5.81,8.65-5.85,13.6,0,5.81,3.64,10.42,7.7,14.23,8.87,8.32,20.63,12.34,30.62,19,.53.35,1,.72,1.55,1.08h20.33s-3.94-11.8-19.14-21S1076,526.27,1084.84,498.28Z"/><path class="cls-13" d="M1051.6,536.64c-2.79-9.14,1-16.68,4.09-25.11,3.23-8.77,9.66-21,4.2-36.65-3.4-9.72-9.86-9.7-17.33-16.64-7.06-6.56-15.1-12.17-21.52-19.41-6.06-6.83-11.12-14.46-12.71-23.62a89.79,89.79,0,0,1-1.13-14.53l-.37.6c-10.4,16.4-35.6,33.2-22,69.59s57,35.4,58.19,79.39h19.22A25.15,25.15,0,0,1,1051.6,536.64Z"/><path class="cls-14" d="M1026.68,439.36c-11.9-3.32-29.72-.8-48.74-5.93a262,262,0,0,1-27.79-9.08,92.75,92.75,0,0,1-6.54,12.36c5.46,3.49,52.28,33.24,67.59,36.32,18.13,3.65,34.61,11.66,45.17,4.88S1039,453.41,1026.68,439.36Z"/><path class="cls-15" d="M1026.68,439.36c-11.9-3.32-29.72-.8-48.74-5.93-5.55-1.5-10.47-3-14.66-4.37-6.44,2.75-13,5.28-19.52,7.74,6.11,3.9,52.26,33.17,67.44,36.22,18.13,3.65,34.61,11.66,45.17,4.88S1039,453.41,1026.68,439.36Z"/><path class="cls-14" d="M926.43,484.87c-11.6-4.8,12-24.8,21.6-40.8,11.12-5.37,29.91-8.44,47.72-16.86a237.61,237.61,0,0,0,28.42-15.56s-.88-9.67,3.45-14.37c2.49-2.7,8.06-7.6,9.26-6.82s9,.71,8.85,2.73-8.51,2.13-8.51,2.13l-3.51,3.57s6.55.93,13.88-5.33,9.81-3.85,9.42-1.24-6.69,5.95-6.69,5.95c-1.24,1.73,7.51-2.78,8.43-2s3.06,3.64-4.21,6.44-1.86,1.25,4.34-.62,4.59,2.1-4.83,7.06,6-3.34,6.24-.19-6.24,5.07-6.24,5.07-12.32,6.68-16,7.22-6.6.88-6.6.88-46,43.81-61.4,49.91C952.83,478.87,938,489.67,926.43,484.87Z"/><path class="cls-15" d="M952.23,467.07A54.18,54.18,0,0,1,936,460.22c-9.13,11.21-17.38,21.4-9.54,24.65,11.6,4.8,26.4-6,43.6-12.8a61.73,61.73,0,0,0,11.29-6.69C972.1,468.21,961.47,469.48,952.23,467.07Z"/><path class="cls-12" d="M935.63,343.68s-20,2.4-24.8,23.2-1.2,64.39-24.4,94-28,20.4-11.2,38.8,24.4,20.8,6.8,27.2-50.8,6-50.8,24.4h98s1.64-65.15,4.8-82.39c4.4-24,41.6-34.4,43.6-78.79S951.23,343.68,935.63,343.68Z"/><path class="cls-13" d="M865.27,486.1c-.39,2.94,2.84,5.78,10,13.57,16.8,18.4,24.4,20.8,6.8,27.2-.88.32-1.79.62-2.74.91a34.9,34.9,0,0,0,13.06-3.9c7.66-4.33,8.93-13.25,2.81-19.76C887.3,495.72,876,490.16,865.27,486.1Z"/><path class="cls-13" d="M837.29,549.65a80.48,80.48,0,0,1,3.41-11.56c-5.68,2.91-9.46,7-9.46,13.17h3.2l2.58-.34C837.11,550.49,837.2,550.06,837.29,549.65Z"/><path class="cls-13" d="M935.63,343.68a21.46,21.46,0,0,0-2.47.51c-1.05,7.45-2.45,14.91-2.07,22.42.46,9,5.45,19.22,15.36,20.85,5.17.85,10.46,1.44,13.42,6.49,2.15,3.67,1,9.15.31,13.05a51,51,0,0,1-15,28.78c-6.87,6.84-21.54-17.51-31.16-18.61-20.28-2.34,15.6,16.38,4.68,38.21-4.12,8.23-9,34.11-6.57,42.68,2.07,7.31,3.76,15.67,1.06,23.07-6.09,16.65-24.31,24.75-40,29.91l-.7.23h56.68s1.64-65.15,4.8-82.39c4.4-24,41.6-34.4,43.6-78.79S951.23,343.68,935.63,343.68Z"/><path class="cls-14" d="M973.44,432.18a227.19,227.19,0,0,1-26.23-9s.79-8-4.31-11.82c-2.93-2.22-2.53-4.09-5.26-6-1.17-.83-5.5-4-5.46-1.95.06,3.48,4.09,8.19,4.09,8.19l2.92,4.87s-9.16-2.73-20.47-5.46c-9.36-2.26-16.06-4.84-15.21-2.34s16.77,8.19,16.77,8.19c1.53,1.49-15.75-4.18-17-4.09-2.73.19,1,3.31,12.43,7,7.41,2.42-4.64-1-11.06-1.78s2.53,4.82,12.69,8c18.73,5.93-10-3.36-10-1.8,0,3.15,13,8.06,13,8.06s12.29,4.54,16,4.42,6.65-.3,6.65-.3,3.9,2.51,9.89,6.22a5,5,0,0,1,.7-.36c4.33-1.77,8.71-3.4,13.12-4.93Q970,434.66,973.44,432.18Z"/><path class="cls-15" d="M973.44,432.18c-3.74-1.07-7.15-2.13-10.17-3.12-6.44,2.75-13,5.28-19.52,7.74,1.36.87,4.69,3,9.21,5.78a5,5,0,0,1,.7-.36c4.33-1.77,8.71-3.4,13.12-4.93Q970,434.66,973.44,432.18Z"/><path class="cls-16" d="M943.07,324.09s-9.44.4-9.84,17.6-5,25.48,26.4,41.2c25.6,12.8,58.39,14.4,72-12.8s-7.6-24.8-10.4-37.6-20.6-10.8-20.6-10.8Z"/><path class="cls-17" d="M963.23,374.88c-31.43-15.72-26.8-24-26.4-41.2a35.86,35.86,0,0,1,.69-6.43c-2.13,2.44-4.11,6.77-4.29,14.43-.4,17.2-5,25.48,26.4,41.2,25.6,12.8,58.39,14.4,72-12.8a57.2,57.2,0,0,0,2.84-6.58C1020.43,389.2,988.37,387.45,963.23,374.88Z"/><path class="cls-17" d="M945.47,324.09s-1.84,24.8,35,30.8,34.8-27.2,34-30S945.47,324.09,945.47,324.09Z"/><path class="cls-15" d="M943.44,301.16s-4.06-9.6-10.15-4.27-2.54,27.73,12.18,27.2S943.44,301.16,943.44,301.16Z"/><path class="cls-18" d="M931.83,305.69a7,7,0,0,1,.41-2.57,2.69,2.69,0,0,1,.88-1.21l.42-.2a2.85,2.85,0,0,1,.47-.06,1.34,1.34,0,0,1,.44.06,1.36,1.36,0,0,1,.4.14,4,4,0,0,1,1.2.88l.47.53c.14.18.26.37.39.56a14,14,0,0,1,1.22,2.36,30.23,30.23,0,0,1,1.5,4.93,42.29,42.29,0,0,1,.81,5l.07.68-.58.21a6.87,6.87,0,0,0-1.61.79,2.16,2.16,0,0,0-.51.48.34.34,0,0,0,0,.4,3.6,3.6,0,0,0,1.39,1.08c.58.32,1.21.59,1.84.86a12.23,12.23,0,0,1-2.06-.28,6.51,6.51,0,0,1-1-.34,2.59,2.59,0,0,1-1-.69,1.54,1.54,0,0,1-.27-1.52,2.75,2.75,0,0,1,.76-1.08,7.89,7.89,0,0,1,1.89-1.26l-.51.89c-.31-1.61-.68-3.24-1-4.84s-.79-3.19-1.3-4.73a17.12,17.12,0,0,0-.89-2.19,4.65,4.65,0,0,0-1.27-1.69c-.24-.15-.43-.25-.66-.16a1.94,1.94,0,0,0-.74.67A9.88,9.88,0,0,0,931.83,305.69Z"/><path class="cls-15" d="M1012.16,301.54s2.89-10.05,9.57-5.56,5.8,27.18-8.87,28.58S1012.16,301.54,1012.16,301.54Z"/><path class="cls-18" d="M1025,305.69a9.88,9.88,0,0,0-1.06-2.22,1.94,1.94,0,0,0-.74-.67c-.23-.1-.41,0-.66.16a4.65,4.65,0,0,0-1.27,1.69,17.13,17.13,0,0,0-.89,2.19c-.51,1.53-.91,3.12-1.3,4.73s-.74,3.23-1,4.84l-.51-.89a7.89,7.89,0,0,1,1.89,1.26,2.75,2.75,0,0,1,.76,1.08,1.54,1.54,0,0,1-.27,1.52,2.6,2.6,0,0,1-1,.69,6.51,6.51,0,0,1-1,.34,12.23,12.23,0,0,1-2.06.28c.63-.28,1.26-.55,1.84-.86a3.6,3.6,0,0,0,1.39-1.08.34.34,0,0,0,0-.4,2.16,2.16,0,0,0-.51-.48,6.87,6.87,0,0,0-1.61-.79l-.58-.21.07-.68a42.29,42.29,0,0,1,.81-5,30.22,30.22,0,0,1,1.5-4.93,14,14,0,0,1,1.22-2.36c.13-.19.26-.38.39-.56l.47-.53a4,4,0,0,1,1.2-.88,1.36,1.36,0,0,1,.4-.14,1.34,1.34,0,0,1,.44-.06,2.85,2.85,0,0,1,.47.06l.42.2a2.69,2.69,0,0,1,.88,1.21A7,7,0,0,1,1025,305.69Z"/><path class="cls-14" d="M974.79,259.56s-31.91,1.6-33.38,43.2,30.93,56,52,46.4,26.51-38.4,20.62-58.13S998.85,258,974.79,259.56Z"/><path class="cls-19" d="M973.31,254.12s-31.48-2.06-28.13-21.42,22.63-16.95,28.3-19,24.85-6.28,29.5,11.53-18.32,36.38-32.25,33.54S973.31,254.12,973.31,254.12Z"/><path class="cls-19" d="M976.15,225.74a16.89,16.89,0,0,0-2.61-2.48q-1.4-1.14-2.9-2.13a32,32,0,0,0-6.36-3.31,16.08,16.08,0,0,0-6.94-1.13,10.31,10.31,0,0,0-6.25,2.81,16.85,16.85,0,0,0-3.88,5.82,14.94,14.94,0,0,0-.73,6.92c.1,1.18.29,2.36.47,3.55s.33,2.38.56,3.54a12,12,0,0,0,2.88,6.24l0,0v0a15.48,15.48,0,0,0,5.84,4c1.1.5,2.24,1,3.36,1.43s2.28.84,3.43,1.21a25,25,0,0,0,7.12,1.29,48.22,48.22,0,0,0,7.27-.67,42.76,42.76,0,0,1-7.27,1,23.5,23.5,0,0,1-7.29-1.07c-1.19-.34-2.34-.73-3.51-1.13s-2.28-.88-3.42-1.36a15.84,15.84,0,0,1-6.19-4.15l0,0a12.83,12.83,0,0,1-3.17-6.66c-.25-1.2-.42-2.4-.6-3.59s-.36-2.4-.45-3.61a15.82,15.82,0,0,1,.85-7.32,17.68,17.68,0,0,1,4.13-6.09,10.9,10.9,0,0,1,6.74-2.88,16.67,16.67,0,0,1,7.18,1.32,30.21,30.21,0,0,1,6.33,3.55q1.47,1.06,2.84,2.25A16.41,16.41,0,0,1,976.15,225.74Z"/><path class="cls-19" d="M973.24,225.79a16.89,16.89,0,0,0-3-2q-1.58-.87-3.23-1.59a32,32,0,0,0-6.84-2.15,16.08,16.08,0,0,0-7,.1,10.31,10.31,0,0,0-5.66,3.85,16.85,16.85,0,0,0-2.8,6.4,14.94,14.94,0,0,0,.49,6.94c.31,1.15.7,2.27,1.08,3.42s.74,2.29,1.17,3.39a12,12,0,0,0,3.92,5.64h0a15.48,15.48,0,0,0,6.44,2.9c1.17.3,2.38.55,3.55.82s2.39.43,3.59.59a25,25,0,0,0,7.24,0,48.21,48.21,0,0,0,7-1.93,42.76,42.76,0,0,1-7,2.27,23.5,23.5,0,0,1-7.36.22c-1.23-.13-2.43-.31-3.65-.5s-2.4-.46-3.61-.74a15.84,15.84,0,0,1-6.82-3l0,0a12.83,12.83,0,0,1-4.29-6c-.46-1.13-.84-2.29-1.22-3.43s-.77-2.3-1.08-3.48a15.82,15.82,0,0,1-.44-7.35,17.68,17.68,0,0,1,3-6.72,10.9,10.9,0,0,1,6.14-4,16.66,16.66,0,0,1,7.3,0,30.21,30.21,0,0,1,6.86,2.39q1.64.78,3.19,1.72A16.42,16.42,0,0,1,973.24,225.79Z"/><path class="cls-19" d="M974.35,220.58c.87-1.54,1.7-3.11,2.71-4.57a13.16,13.16,0,0,1,3.73-3.78,9.61,9.61,0,0,1,5.15-1.32,17.75,17.75,0,0,1,5.27.93,22.16,22.16,0,0,1,9.36,5.1,13.9,13.9,0,0,1,3,4.54,31.55,31.55,0,0,1,1.43,5.19,29.31,29.31,0,0,1,.14,10.75,19.63,19.63,0,0,1-1.7,5.18,15.09,15.09,0,0,1-3.32,4.39,24.62,24.62,0,0,1-9.73,4.74c-3.47.94-7,1.46-10.45,2.12l-.28-1.51c3.51-.62,7-1.09,10.38-2a23.37,23.37,0,0,0,9.27-4.34,13.88,13.88,0,0,0,3.1-4,18.5,18.5,0,0,0,1.67-4.85,28.34,28.34,0,0,0,0-10.37,30.77,30.77,0,0,0-1.27-5.06,13.12,13.12,0,0,0-2.71-4.34,21.59,21.59,0,0,0-9-5.14,17.34,17.34,0,0,0-5.13-1,9.31,9.31,0,0,0-5,1.17,13,13,0,0,0-3.76,3.64C976.12,217.51,975.25,219.06,974.35,220.58Z"/><path class="cls-19" d="M984.3,253.56a30.59,30.59,0,0,0,8.42-1.53,20.25,20.25,0,0,0,7.24-4.38,25.38,25.38,0,0,0,5-7,34.92,34.92,0,0,0,1.72-4,11.77,11.77,0,0,0,.72-4.19,13.42,13.42,0,0,0-3.17-7.9,26.75,26.75,0,0,0-6.65-5.74,27,27,0,0,0-8.18-3.36,36.5,36.5,0,0,0-8.86-.76,36.57,36.57,0,0,1,8.89.62,27.91,27.91,0,0,1,15.33,8.82,14.26,14.26,0,0,1,3.59,8.29,12.85,12.85,0,0,1-.58,4.59,36.19,36.19,0,0,1-1.59,4.25,26.91,26.91,0,0,1-5,7.68,22.32,22.32,0,0,1-7.7,5.15,33,33,0,0,1-9,2.19Z"/><path class="cls-19" d="M988.69,253.45a37.47,37.47,0,0,1,8.09-9.18,17.7,17.7,0,0,1,5.43-3,9.43,9.43,0,0,1,6.3,0,10.32,10.32,0,0,1,2.74,1.64,14.63,14.63,0,0,0,2.45,1.64,6.48,6.48,0,0,0,2.73.74,4.58,4.58,0,0,0,2.61-.84,10,10,0,0,0,3.18-4.87,15.69,15.69,0,0,0,1-5.94,10.47,10.47,0,0,1,0,3.06,19,19,0,0,1-.58,3,10.52,10.52,0,0,1-3.19,5.33,5.05,5.05,0,0,1-3.07,1.09,7.34,7.34,0,0,1-3.13-.78,15.52,15.52,0,0,1-2.64-1.71,9.46,9.46,0,0,0-2.5-1.45,8.48,8.48,0,0,0-5.67-.1,18.87,18.87,0,0,0-5.24,2.78,35.49,35.49,0,0,0-4.54,4A50.65,50.65,0,0,0,988.69,253.45Z"/><path class="cls-19" d="M978.2,258.42A37.47,37.47,0,0,1,989,252.69a17.7,17.7,0,0,1,6.15-.92A9.43,9.43,0,0,1,1001,254a10.32,10.32,0,0,1,2,2.5,14.63,14.63,0,0,0,1.71,2.4,6.48,6.48,0,0,0,2.3,1.65,4.58,4.58,0,0,0,2.74.13,10,10,0,0,0,4.7-3.43,15.69,15.69,0,0,0,3-5.21,10.47,10.47,0,0,1-1,2.88,19,19,0,0,1-1.61,2.63,10.52,10.52,0,0,1-4.87,3.86,5.05,5.05,0,0,1-3.25-.06,7.34,7.34,0,0,1-2.65-1.84,15.52,15.52,0,0,1-1.87-2.54,9.46,9.46,0,0,0-1.83-2.24,8.48,8.48,0,0,0-5.27-2.09,18.87,18.87,0,0,0-5.89.75,35.5,35.5,0,0,0-5.66,2.13A50.65,50.65,0,0,0,978.2,258.42Z"/><path class="cls-19" d="M989,255.26a10.42,10.42,0,0,1,1.53-4,8.66,8.66,0,0,1,3.27-2.9,53.47,53.47,0,0,1,8-3.38h0a7.39,7.39,0,0,1,3.53-.07,7.77,7.77,0,0,1,3.15,1.61,7.35,7.35,0,0,1,2.07,2.89c.45,1.08.73,2.15,1.17,3.14a7.21,7.21,0,0,0,1.71,2.64,5.73,5.73,0,0,0,2.74,1.41c1.08.18,2.19.42,3.26.51a4.4,4.4,0,0,0,3-.56l0,0h0a4.47,4.47,0,0,0,1.68-1.92,4.92,4.92,0,0,0,.51-2.55,5.86,5.86,0,0,0-.29-1.3c-.14-.41-.43-.8-.84-.69a2.28,2.28,0,0,0-1,.8,7.49,7.49,0,0,0-.77,1.14,7.55,7.55,0,0,1,.68-1.21,2.31,2.31,0,0,1,1.07-.93.81.81,0,0,1,.76.16,1.86,1.86,0,0,1,.42.62,6.16,6.16,0,0,1,.4,1.37,5.4,5.4,0,0,1-2.25,5.08l0,0a5.06,5.06,0,0,1-3.44.83,30.24,30.24,0,0,1-3.38-.45,6.61,6.61,0,0,1-3.18-1.59,8.14,8.14,0,0,1-2-2.92c-.48-1.06-.8-2.16-1.21-3.15a6.37,6.37,0,0,0-1.77-2.55,6.86,6.86,0,0,0-2.76-1.46,6.52,6.52,0,0,0-3.12,0h0a60.62,60.62,0,0,0-8,3.06,8.8,8.8,0,0,0-3.26,2.59A11.13,11.13,0,0,0,989,255.26Z"/><path class="cls-19" d="M976.37,256.16a50.73,50.73,0,0,0-4.09-4.59,35.73,35.73,0,0,0-4.62-4,19.26,19.26,0,0,0-5.31-2.77,8.78,8.78,0,0,0-5.74.09,9.64,9.64,0,0,0-2.54,1.44,15.79,15.79,0,0,1-2.68,1.72,7.59,7.59,0,0,1-3.15.8,5.06,5.06,0,0,1-3.11-1,10.34,10.34,0,0,1-3.3-5.33,18.74,18.74,0,0,1-.6-3.05,10.34,10.34,0,0,1,0-3.09,15.51,15.51,0,0,0,1,6,9.8,9.8,0,0,0,3.28,4.86,4.58,4.58,0,0,0,2.66.8,6.72,6.72,0,0,0,2.76-.76,14.9,14.9,0,0,0,2.48-1.64,10.5,10.5,0,0,1,2.78-1.63,9,9,0,0,1,3.19-.55,11.49,11.49,0,0,1,3.16.53,18,18,0,0,1,5.5,3A37.71,37.71,0,0,1,976.37,256.16Z"/><path class="cls-19" d="M976.07,258a11,11,0,0,0-1.83-3.88,9,9,0,0,0-3.33-2.58,62.47,62.47,0,0,0-8.09-3h0a6.74,6.74,0,0,0-3.16,0,7,7,0,0,0-2.81,1.45,6.35,6.35,0,0,0-1.81,2.55c-.42,1-.74,2.11-1.24,3.17a8.08,8.08,0,0,1-2,2.93,6.75,6.75,0,0,1-3.23,1.57,31.08,31.08,0,0,1-3.42.45,5.18,5.18,0,0,1-3.48-.83l0,0a5.07,5.07,0,0,1-1.87-2.25,5,5,0,0,1-.42-2.84,6.08,6.08,0,0,1,.41-1.38,1.87,1.87,0,0,1,.43-.62.83.83,0,0,1,.76-.15,2.35,2.35,0,0,1,1.08.93,7.52,7.52,0,0,1,.69,1.22,7.47,7.47,0,0,0-.78-1.14,2.31,2.31,0,0,0-1-.79.59.59,0,0,0-.53.14,1.61,1.61,0,0,0-.32.54,5.78,5.78,0,0,0-.29,1.31,4.84,4.84,0,0,0,.52,2.56,4.49,4.49,0,0,0,1.71,1.91h0l0,0a4.52,4.52,0,0,0,3,.56c1.08-.09,2.2-.33,3.3-.51a5.86,5.86,0,0,0,2.79-1.4,7.13,7.13,0,0,0,1.76-2.64c.45-1,.74-2.07,1.2-3.16a7.33,7.33,0,0,1,2.12-2.9,7.93,7.93,0,0,1,3.2-1.59,7.62,7.62,0,0,1,3.57.07h0a54.9,54.9,0,0,1,8.08,3.36,8.8,8.8,0,0,1,3.33,2.89A10.34,10.34,0,0,1,976.07,258Z"/><path class="cls-20" d="M940.85,304.8s-9.36-29,14.52-46.31c26.14-18.93,48.79,2.85,55.07,9.07,7.29,7.22,10.4,26.13,5.84,46.4l-2.83-26.27s-8.84-3.86-9.86-15.86c0,0-32.73-14.17-52,2.67,0,0-1.13,15-9,20.1C942.56,294.59,943.89,300.54,940.85,304.8Z"/><path class="cls-20" d="M1005.44,269.37s-8.29,14.71-40.87,14.41c0,0,13.72-3.6,20.86-7.81,0,0-20.29,6.31-27.72,8.41l8.86-6.61s-29.15,1.2-22.86,42.94a55.83,55.83,0,0,1-6.29-24.92c-.57-27.93,24.29-50.45,44.59-39.94S1005.44,269.37,1005.44,269.37Z"/><path class="cls-20" d="M1003.44,270.87a13.1,13.1,0,0,1-2.57,4.26,24.3,24.3,0,0,1-1.76,1.8c-.65.52-1.26,1.12-2,1.58a33.33,33.33,0,0,1-8.93,4.53l-1.19.41c-.4.12-.81.22-1.21.33l-2.42.63c-1.63.33-3.27.67-4.91.9s-3.31.37-5,.48-3.32.1-5,.1c1.65-.22,3.29-.38,4.93-.57s3.26-.5,4.89-.74,3.22-.65,4.82-1l2.37-.67c.39-.11.79-.21,1.18-.34l1.15-.42a35.26,35.26,0,0,0,8.82-4.22c.7-.42,1.31-1,2-1.44s1.24-1.06,1.81-1.65A14.17,14.17,0,0,0,1003.44,270.87Z"/><path class="cls-20" d="M950.85,280.48c-.76,1.45-1.48,2.93-2.13,4.43s-1.28,3-1.83,4.54a57,57,0,0,0-2.61,9.39,44.34,44.34,0,0,0-.65,4.82,41.53,41.53,0,0,0,0,4.86,30.37,30.37,0,0,0,2.1,9.5,25.56,25.56,0,0,1-1.9-4.56,29.86,29.86,0,0,1-.95-4.88,36.44,36.44,0,0,1,.48-9.91,50.83,50.83,0,0,1,2.87-9.48A47.59,47.59,0,0,1,950.85,280.48Z"/><path class="cls-20" d="M1013.73,286.19a75.64,75.64,0,0,1,1.13,7.53c.27,2.53.4,5.07.46,7.61a55,55,0,0,1-.41,7.63,17.09,17.09,0,0,1-2.32,7.25c.22-.6.5-1.16.68-1.77s.33-1.21.43-1.83l.3-1.86.17-1.88q.24-3.76.19-7.54c0-2.52-.13-5-.23-7.57Z"/><path class="cls-20" d="M924.84,271.47a6.54,6.54,0,0,0-1.82-.2,1.77,1.77,0,0,0-1.4.89,4.13,4.13,0,0,0-.45,1.69,15.15,15.15,0,0,0,0,1.82v0a13,13,0,0,0,2,5.28,11.78,11.78,0,0,0,4,3.94h0l0,0a4.87,4.87,0,0,0,2.11.79,17.31,17.31,0,0,0,2.44.06,4.74,4.74,0,0,1,2.65.52,8.75,8.75,0,0,1,2,1.74l0,0h0A9.88,9.88,0,0,1,938,293.5c.06,1.89-.14,3.74-.25,5.6-.11-1.86,0-3.73-.25-5.56a9.24,9.24,0,0,0-1.78-5l0,0a8.64,8.64,0,0,0-1.8-1.55,3.85,3.85,0,0,0-2.21-.37,18,18,0,0,1-2.57,0,5.29,5.29,0,0,1-2.54-.95l0,0a12.65,12.65,0,0,1-4.2-4.32,12.51,12.51,0,0,1-1.87-5.68v0h0a15.66,15.66,0,0,1,.13-1.88,4.24,4.24,0,0,1,.65-1.82,2.05,2.05,0,0,1,1.69-.89A5.88,5.88,0,0,1,924.84,271.47Z"/><path class="cls-20" d="M941.76,298a5.14,5.14,0,0,1-3.47-1.05,22.39,22.39,0,0,1-2.71-2.48c-1.69-1.74-3.19-3.65-5.14-4.91a7,7,0,0,0-6.52-.78,7.78,7.78,0,0,0-5.23,4.4A6.57,6.57,0,0,1,920.5,290a11.72,11.72,0,0,1,1.49-1.11,11.33,11.33,0,0,1,1.68-.82,8.73,8.73,0,0,1,3.72-.63,6.45,6.45,0,0,1,1.9.41,9.87,9.87,0,0,1,1.68.9,25.92,25.92,0,0,1,5.16,5.22,22.75,22.75,0,0,0,2.45,2.6A5.24,5.24,0,0,0,941.76,298Z"/><path class="cls-20" d="M1016,298.2a28,28,0,0,1,2.56-6.23,10.91,10.91,0,0,1,2.17-2.67,5.59,5.59,0,0,1,3.24-1.42h-.08a9.87,9.87,0,0,1,3.65-.42c1.26.19,2.32.55,3.3.24a5.29,5.29,0,0,0,1.41-.74,3.94,3.94,0,0,0,1.09-1.14,4.25,4.25,0,0,0,.51-3.08,7.15,7.15,0,0,0-4-5.07,10.74,10.74,0,0,0-1.61-.61,8.59,8.59,0,0,0-1.67-.38,1.47,1.47,0,0,0-1.4.66,5,5,0,0,0-.6,1.63,4.68,4.68,0,0,1,.44-1.72,1.73,1.73,0,0,1,1.56-.9,10.22,10.22,0,0,1,3.51.8,7.45,7.45,0,0,1,3,2.12,7.58,7.58,0,0,1,1.63,3.31,5.13,5.13,0,0,1-.57,3.72,4.86,4.86,0,0,1-1.31,1.41,5.57,5.57,0,0,1-1.7.9,8.28,8.28,0,0,1-3.67-.27,9,9,0,0,0-3.33.34H1024a5.26,5.26,0,0,0-2.84,1.14,10.29,10.29,0,0,0-2.16,2.41A36.22,36.22,0,0,0,1016,298.2Z"/><path class="cls-20" d="M1016.3,296.1a9.87,9.87,0,0,1,3.95-3.93,9.74,9.74,0,0,1,5.57-1.11,6.35,6.35,0,0,1,2.78.94,8.12,8.12,0,0,1,2.12,2,11.37,11.37,0,0,1,2.15,5.15,15.06,15.06,0,0,0-2.73-4.67,6.72,6.72,0,0,0-4.42-2.42,10.14,10.14,0,0,0-5.15.83A12.32,12.32,0,0,0,1016.3,296.1Z"/><path class="cls-21" d="M976.63,323.69s12.8-2.6,13-1.8-5.4,5.4-5.4,5.4S981.43,328.89,976.63,323.69Z"/><path class="cls-18" d="M983.63,327.29a9.47,9.47,0,0,1,1.06-1.81A14.17,14.17,0,0,1,986,324a17,17,0,0,1,3-2.43l-.39,1.86a15.39,15.39,0,0,1-.94-2.5,10.82,10.82,0,0,1-.29-1.35,7.91,7.91,0,0,1-.12-1.45,7.9,7.9,0,0,1,1.18.85,10.81,10.81,0,0,1,1,.95,15.38,15.38,0,0,1,1.66,2.1l.64,1-1,.89a17,17,0,0,1-3.2,2.17,14.18,14.18,0,0,1-1.82.79A9.47,9.47,0,0,1,983.63,327.29Z"/><ellipse class="cls-21" cx="959.03" cy="324.89" rx="9.2" ry="3.2"/><ellipse class="cls-21" cx="1003.02" cy="324.89" rx="9.2" ry="3.2"/><path class="cls-18" d="M993.13,334.66a31.78,31.78,0,0,0,2.87,1.42,7.85,7.85,0,0,0,1.44.41,10.05,10.05,0,0,0,1.61.11,2.91,2.91,0,0,1-1.63.66,4.05,4.05,0,0,1-1.78-.27,5,5,0,0,1-1.49-.94A4,4,0,0,1,993.13,334.66Z"/><path class="cls-18" d="M988.62,332a9.17,9.17,0,0,1,4-1.61,10.67,10.67,0,0,1,4.38.15,8.55,8.55,0,0,1,4,2.23,6.08,6.08,0,0,1,1.7,4.09,17.49,17.49,0,0,0-3.14-2.26,17.07,17.07,0,0,0-3.26-1.19c-1.14-.3-2.36-.49-3.62-.7S990.05,332.32,988.62,332Z"/><path class="cls-1" d="M998.42,331.29l30.8-22.4s-.8-4.6,3.4-5.8,7.8,4,5.2,7.6-6.6.8-6.6.8l-30,21.6Z"/><circle class="cls-12" cx="1034.02" cy="307.39" r="2.1"/><line class="cls-22" x1="1033.42" y1="308.09" x2="1005.02" y2="328.29"/><path class="cls-23" d="M973.23,289.16a17.19,17.19,0,0,1-4.26,4.92,23.87,23.87,0,0,1-5.55,3.36,20.9,20.9,0,0,1-6.34,1.64,14.22,14.22,0,0,1-6.51-.85c2.09-.84,4-1.43,5.83-2.18s3.66-1.44,5.47-2.24l5.49-2.37C969.22,290.65,971.12,289.86,973.23,289.16Z"/><path class="cls-23" d="M986.56,289.16c2.11.7,4,1.49,5.88,2.28l5.49,2.37c1.81.79,3.62,1.5,5.47,2.24s3.75,1.34,5.83,2.18a14.22,14.22,0,0,1-6.51.85,20.9,20.9,0,0,1-6.34-1.64,23.87,23.87,0,0,1-5.55-3.36A17.19,17.19,0,0,1,986.56,289.16Z"/><path class="cls-15" d="M954,308.09s.79,12.8,7.73,12.8c9.67,0,10.13-14.4,10.13-14.4s-2.67-7.33-8.8-7.6C963.09,298.89,956.1,299.89,954,308.09Z"/><path class="cls-23" d="M954.3,306.76a12.31,12.31,0,0,0,3.25,5.74,6.56,6.56,0,0,0,2.52,1.34,8.83,8.83,0,0,0,1.46.2l.75,0L963,314a6.53,6.53,0,0,0,2.74-.82,8.34,8.34,0,0,0,2.34-1.91,14.84,14.84,0,0,0,1.93-2.7,31.56,31.56,0,0,0,1.61-3.16,12.14,12.14,0,0,1-1.65,7.22A8.62,8.62,0,0,1,963.3,317l-1,.07-1-.08a10,10,0,0,1-2-.44,7.74,7.74,0,0,1-3.38-2.44A9,9,0,0,1,954.3,306.76Z"/><path class="cls-15" d="M1006.29,308.09s-.8,13.1-7.73,12.8c-9.33-.4-10.13-14.4-10.13-14.4s2.67-7.33,8.8-7.6C997.22,298.89,1004.22,299.89,1006.29,308.09Z"/><path class="cls-23" d="M1006.29,306.76a9,9,0,0,1-1.54,7.31,7.74,7.74,0,0,1-3.38,2.44,10,10,0,0,1-2,.44l-1,.08-1-.07a8.62,8.62,0,0,1-6.68-4.32,12.14,12.14,0,0,1-1.65-7.22,31.56,31.56,0,0,0,1.61,3.16,14.84,14.84,0,0,0,1.93,2.7,8.34,8.34,0,0,0,2.34,1.91,6.53,6.53,0,0,0,2.74.82l.73.07.75,0a8.83,8.83,0,0,0,1.46-.2,6.56,6.56,0,0,0,2.52-1.34A12.31,12.31,0,0,0,1006.29,306.76Z"/><polygon class="cls-24" points="951.43 521.91 971.5 533.27 968.53 567.53 951.46 554.21 951.43 521.91"/><polygon class="cls-25" points="1046.05 523.81 971.5 533.27 968.53 567.53 1043.8 558.12 1046.05 523.81"/><polygon class="cls-26" points="951.43 521.91 1028.93 511.2 1046.05 523.81 971.5 533.27 951.43 521.91"/><path class="cls-27" d="M973.25,524.82a2.43,2.43,0,0,0,2.75,2.06l50.84-5.7a2.43,2.43,0,0,0,2.06-2.75h0a2.43,2.43,0,0,0-2.75-2.06l-50.84,5.7a2.43,2.43,0,0,0-2.06,2.75Z"/><path class="cls-1" d="M982,526.73s4.77-14.85-6.38-18.29-5.06-17-5.06-17l52-5.9s-9.37,10.75.09,15.17,1.89,20.7,1.89,20.7Z"/><path class="cls-28" d="M1018.63,496.31c-1.2-4.86,4-10.77,4-10.77l-52,5.9s-3.8,8.48.12,13.73C986.53,501.62,1002.39,497.35,1018.63,496.31Z"/><path class="cls-28" d="M1001.4,518.2c-6.15.88-12.3,1.74-18.44,2.64a25.37,25.37,0,0,1-1,5.88l42.58-5.32a37.26,37.26,0,0,0,2.33-7.23C1018.39,515.53,1009.91,517,1001.4,518.2Z"/></g></svg>